<?xml version="1.0" encoding="utf-8"?>
<!-- Generator: Adobe Illustrator 23.1.0, SVG Export Plug-In . SVG Version: 6.00 Build 0)  -->
<svg version="1.1" id="revisi" xmlns="http://www.w3.org/2000/svg" xmlns:xlink="http://www.w3.org/1999/xlink" x="0px" y="0px"
	 viewBox="0 0 2368.4 1203" style="enable-background:new 0 0 2368.4 1203;" xml:space="preserve">
<style type="text/css">
	.st0{fill:#E4DEEE;}
	.st1{clip-path:url(#SVGID_2_);}
	.st2{opacity:0.1;}
	.st3{fill:#F5C24A;}
	.st4{fill:#DD9C42;}
	.st5{fill:#FFFFFF;}
	.st6{fill:#F1A948;}
	.st7{opacity:0.2;}
	.st8{fill:#F1B25C;}
	.st9{fill:#ED5F65;}
	.st10{fill:#F9ED32;}
	.st11{fill:#FAA71A;}
	.st12{fill:#9C9893;}
	.st13{fill:#F1F2F2;}
	.st14{fill:#FDC015;}
	.st15{fill:#D1D3D4;}
	.st16{fill:#FFCE49;}
	.st17{fill:#4F504F;}
	.st18{fill:#D9D0E7;}
	.st19{fill:#F069A7;}
	.st20{fill:#F7941D;}
	.st21{fill:#F04C4D;}
	.st22{fill:#7F6AAF;}
	.st23{fill:#00B6A0;}
	.st24{fill:#FFE600;}
	.st25{fill:#009444;}
	.st26{fill:#1A2E59;}
	.st27{fill:#FEE1C6;}
	.st28{fill:#568DCA;}
	.st29{fill:#ECDAC7;}
	.st30{fill:#4F371B;}
	.st31{fill:#C43D3C;}
	.st32{fill:#12203C;}
	.st33{fill:#5F4837;}
	.st34{fill:#F26647;}
	.st35{fill:#4E4E6B;}
	.st36{fill:#C0BFBF;}
	.st37{fill:#414042;}
	.st38{fill:#785DA7;}
	.st39{fill:#A78DC2;}
	.st40{fill:#F58772;}
	.st41{fill:#C2B59B;}
	.st42{fill:#58595B;}
	.st43{fill:#9E968C;}
	.st44{fill:#00A8DA;}
	.st45{fill:#C8E8E2;}
	.st46{fill:#F89F61;}
	.st47{fill:#0098CD;}
	.st48{fill:#F26D78;}
	.st49{opacity:0.2;fill:#231F20;}
	.st50{fill:#CCC6BE;}
	.st51{fill:#A87D50;}
	.st52{fill:#1E2859;}
	.st53{fill:#E181B5;}
	.st54{fill:#1B154B;}
	.st55{opacity:0.2;fill:#1B154B;}
</style>
<g>
	<g>
		<g>
			<path class="st0" d="M12,653.2c0,18.5,15,33.5,33.5,33.5h747.3c18.5,0,33.5-15,33.5-33.5l0,0c0-18.5-15-33.5-33.5-33.5H45.6
				C27,619.7,12,634.7,12,653.2L12,653.2z"/>
			<path class="st0" d="M1467.6,744.9c0,18.5,15,33.5,33.5,33.5h747.3c18.5,0,33.5-15,33.5-33.5l0,0c0-18.5-15-33.5-33.5-33.5
				h-747.3C1482.6,711.4,1467.6,726.4,1467.6,744.9L1467.6,744.9z"/>
			<path class="st0" d="M466.5,558.9c0,18.5,15,33.5,33.5,33.5h561.4c18.5,0,33.5-15,33.5-33.5l0,0c0-18.5-15-33.5-33.5-33.5H500
				C481.5,525.3,466.5,540.4,466.5,558.9L466.5,558.9z"/>
			<path class="st0" d="M199.2,558.9c0,18.5,15,33.5,33.5,33.5h90.7c18.5,0,33.5-15,33.5-33.5l0,0c0-18.5-15-33.5-33.5-33.5h-90.7
				C214.2,525.3,199.2,540.4,199.2,558.9L199.2,558.9z"/>
			<path class="st0" d="M263.9,934.9c0,18.5,15,33.5,33.5,33.5h90.7c18.5,0,33.5-15,33.5-33.5l0,0c0-18.5-15-33.5-33.5-33.5h-90.7
				C278.9,901.4,263.9,916.4,263.9,934.9L263.9,934.9z"/>
			<path class="st0" d="M2104.8,834.7c0,18.5-15,33.5-33.5,33.5H1324c-18.5,0-33.5-15-33.5-33.5l0,0c0-18.5,15-33.5,33.5-33.5h747.3
				C2089.8,801.2,2104.8,816.2,2104.8,834.7L2104.8,834.7z"/>
			<path class="st0" d="M2330.2,839.9c0,18.5-15,33.5-33.5,33.5H2206c-18.5,0-33.5-15-33.5-33.5l0,0c0-18.5,15-33.5,33.5-33.5h90.7
				C2315.2,806.4,2330.2,821.4,2330.2,839.9L2330.2,839.9z"/>
			<path class="st0" d="M345.2,676.1c0,31.2-25.3,56.5-56.5,56.5c-31.2,0-56.5-25.3-56.5-56.5c0-31.2,25.3-56.5,56.5-56.5
				C319.9,619.7,345.2,644.9,345.2,676.1z"/>
			<path class="st0" d="M392.8,520.5c0,42-34,76-76,76c-42,0-76-34-76-76s34-76,76-76C358.8,444.5,392.8,478.5,392.8,520.5z"/>
			<path class="st0" d="M1536.8,380.9c0,18.5-15,33.5-33.5,33.5h-90.7c-18.5,0-33.5-15-33.5-33.5l0,0c0-18.5,15-33.5,33.5-33.5h90.7
				C1521.8,347.4,1536.8,362.4,1536.8,380.9L1536.8,380.9z"/>
			<path class="st0" d="M1343.2,342.5c0,42,34,76,76,76c42,0,76-34,76-76c0-42-34-76-76-76C1377.2,266.5,1343.2,300.6,1343.2,342.5z
				"/>
			<path class="st0" d="M2214.3,722c0,31.2-25.3,56.5-56.5,56.5c-31.2,0-56.5-25.3-56.5-56.5c0-31.2,25.3-56.5,56.5-56.5
				C2189,665.5,2214.3,690.8,2214.3,722z"/>
			
				<ellipse transform="matrix(1.110902e-02 -0.9999 0.9999 1.110902e-02 1328.7772 2712.5732)" class="st0" cx="2035.8" cy="684.5" rx="93.9" ry="93.9"/>
			<path class="st0" d="M1976,625.9c0,80-64.8,144.8-144.8,144.8c-80,0-144.8-64.8-144.8-144.8s64.8-144.8,144.8-144.8
				C1911.2,481.1,1976,546,1976,625.9z"/>
			
				<ellipse transform="matrix(0.9606 -0.278 0.278 0.9606 -110.5458 458.0933)" class="st0" cx="1560.3" cy="618.9" rx="171.8" ry="171.8"/>
			<path class="st0" d="M2000.6,895.1c0,51.8-42,93.9-93.9,93.9c-51.8,0-93.9-42-93.9-93.9c0-51.8,42-93.9,93.9-93.9
				C1958.5,801.2,2000.6,843.2,2000.6,895.1z"/>
			
				<ellipse transform="matrix(0.9996 -2.937398e-02 2.937398e-02 0.9996 -21.346 12.1797)" class="st0" cx="403.9" cy="732.6" rx="93.9" ry="93.9"/>
			
				<ellipse transform="matrix(6.848866e-03 -1 1 6.848866e-03 -209.4524 1449.5736)" class="st0" cx="625" cy="830.2" rx="171.4" ry="171.4"/>
			
				<ellipse transform="matrix(0.9932 -0.116 0.116 0.9932 -46.9919 81.6395)" class="st0" cx="677.8" cy="444.5" rx="130.1" ry="130.1"/>
			
				<ellipse transform="matrix(9.131231e-02 -0.9958 0.9958 9.131231e-02 410.2561 1257.8899)" class="st0" cx="894.4" cy="404.1" rx="170.5" ry="170.5"/>
			<path class="st0" d="M615.1,513.8c0,33.6-27.2,60.8-60.8,60.8c-33.6,0-60.8-27.2-60.8-60.8c0-33.6,27.2-60.8,60.8-60.8
				C587.9,453,615.1,480.2,615.1,513.8z"/>
			<path class="st0" d="M1090.9,513.8c0,33.6-27.2,60.8-60.8,60.8c-33.6,0-60.8-27.2-60.8-60.8c0-33.6,27.2-60.8,60.8-60.8
				C1063.7,453,1090.9,480.2,1090.9,513.8z"/>
			<path class="st0" d="M852.3,732.6c0,47.4-38.4,85.8-85.8,85.8c-47.4,0-85.8-38.4-85.8-85.8c0-47.4,38.4-85.8,85.8-85.8
				C813.8,646.8,852.3,685.2,852.3,732.6z"/>
			<polygon class="st0" points="508.9,647.8 429.9,676.1 535,732.6 			"/>
			<g>
				<defs>
					<rect id="SVGID_1_" x="567.8" y="-11.9" width="1263.5" height="1050.1"/>
				</defs>
				<clipPath id="SVGID_2_">
					<use xlink:href="#SVGID_1_"  style="overflow:visible;"/>
				</clipPath>
				<g class="st1">
					<g>
						<path class="st0" d="M1202.3,1123.9c-62.5,0-123.2-12.2-180.3-36.4c-55.2-23.3-104.7-56.7-147.2-99.3
							c-42.5-42.5-75.9-92.1-99.3-147.2c-24.2-57.1-36.4-117.8-36.4-180.3c0-62.5,12.2-123.2,36.4-180.3
							c23.3-55.2,56.7-104.7,99.3-147.2c42.5-42.5,92.1-75.9,147.2-99.3c57.1-24.2,117.8-36.4,180.3-36.4
							c62.5,0,123.2,12.2,180.3,36.4c55.2,23.3,104.7,56.7,147.2,99.3c42.5,42.5,75.9,92.1,99.3,147.2
							c24.2,57.1,36.4,117.8,36.4,180.3c0,62.5-12.2,123.2-36.4,180.3c-23.3,55.2-56.7,104.7-99.3,147.2
							c-42.5,42.5-92.1,75.9-147.2,99.3C1325.5,1111.7,1264.9,1123.9,1202.3,1123.9z M1202.3,198.7
							c-254.8,0-462.1,207.3-462.1,462.1s207.3,462.1,462.1,462.1c254.8,0,462.1-207.3,462.1-462.1S1457.2,198.7,1202.3,198.7z"/>
					</g>
					<g>
						<path class="st0" d="M1202.3,1177.9c-2,0-4.1,0-6.1,0l0-2.1c4.2,0,8.4,0,12.5,0l0,2.1
							C1206.7,1177.9,1204.5,1177.9,1202.3,1177.9z M1183.6,1177.5c-4.2-0.1-8.4-0.3-12.6-0.6l0.1-2.1c4.2,0.2,8.4,0.4,12.5,0.6
							L1183.6,1177.5z M1221.4,1177.5l-0.1-2.1c4.2-0.2,8.4-0.4,12.5-0.6l0.1,2.1C1229.8,1177.2,1225.6,1177.4,1221.4,1177.5z
							 M1158.5,1176c-4.2-0.4-8.4-0.8-12.5-1.2l0.2-2.1c4.1,0.4,8.3,0.9,12.5,1.2L1158.5,1176z M1246.5,1176l-0.2-2.1
							c4.1-0.4,8.3-0.8,12.5-1.2l0.2,2.1C1254.9,1175.2,1250.7,1175.7,1246.5,1176z M1133.5,1173.3c-4.1-0.6-8.3-1.2-12.5-1.8
							l0.3-2.1c4.1,0.6,8.3,1.3,12.4,1.8L1133.5,1173.3z M1271.5,1173.3l-0.3-2.1c4.1-0.6,8.3-1.2,12.4-1.8l0.3,2.1
							C1279.9,1172.1,1275.7,1172.7,1271.5,1173.3z M1108.6,1169.4c-4.1-0.8-8.3-1.6-12.4-2.4l0.4-2.1c4.1,0.9,8.2,1.7,12.3,2.4
							L1108.6,1169.4z M1296.4,1169.3l-0.4-2.1c4.1-0.8,8.2-1.6,12.3-2.4l0.4,2C1304.7,1167.8,1300.5,1168.6,1296.4,1169.3z
							 M1083.9,1164.2c-4.1-1-8.2-2-12.2-3l0.5-2c4,1,8.1,2.1,12.2,3L1083.9,1164.2z M1321.1,1164.2l-0.5-2c4-1,8.1-2,12.2-3l0.5,2
							C1329.2,1162.2,1325.1,1163.2,1321.1,1164.2z M1059.6,1157.9c-4-1.2-8.1-2.4-12.1-3.6l0.6-2c4,1.2,8,2.5,12,3.6L1059.6,1157.9
							z M1345.4,1157.8l-0.6-2c4-1.1,8-2.4,12-3.6l0.6,2C1353.5,1155.4,1349.4,1156.7,1345.4,1157.8z M1035.5,1150.4
							c-4-1.4-8-2.8-11.9-4.2l0.7-2c3.9,1.4,7.9,2.9,11.9,4.2L1035.5,1150.4z M1369.4,1150.3l-0.7-2c3.9-1.3,7.9-2.8,11.8-4.2l0.7,2
							C1377.4,1147.5,1373.4,1148.9,1369.4,1150.3z M1011.8,1141.6c-3.9-1.5-7.8-3.2-11.7-4.8l0.8-1.9c3.8,1.6,7.8,3.2,11.6,4.8
							L1011.8,1141.6z M1393.1,1141.6l-0.8-1.9c3.9-1.5,7.7-3.1,11.6-4.8l0.8,1.9C1400.8,1138.4,1396.9,1140,1393.1,1141.6z
							 M988.6,1131.7c-3.8-1.7-7.7-3.5-11.4-5.4l0.9-1.9c3.8,1.8,7.6,3.6,11.4,5.3L988.6,1131.7z M1416.2,1131.7l-0.9-1.9
							c3.8-1.7,7.6-3.5,11.3-5.3l0.9,1.9C1423.8,1128.2,1419.9,1130,1416.2,1131.7z M1438.8,1120.8l-1-1.9c3.7-1.9,7.4-3.9,11-5.9
							l1,1.8C1446.2,1116.9,1442.5,1118.9,1438.8,1120.8z M965.9,1120.7c-3.7-1.9-7.5-3.9-11.1-5.9l1-1.8c3.7,2,7.4,4,11.1,5.9
							L965.9,1120.7z M1460.8,1108.7l-1-1.8c3.6-2.1,7.2-4.2,10.8-6.4l1.1,1.8C1468,1104.5,1464.4,1106.7,1460.8,1108.7z
							 M943.7,1108.6c-3.6-2.1-7.3-4.3-10.8-6.4l1.1-1.8c3.6,2.2,7.2,4.3,10.8,6.4L943.7,1108.6z M1482.2,1095.6l-1.1-1.8
							c3.5-2.2,7-4.6,10.4-6.9l1.2,1.7C1489.3,1091,1485.8,1093.4,1482.2,1095.6z M922.2,1095.5c-3.5-2.3-7-4.6-10.5-7l1.2-1.7
							c3.4,2.3,7,4.7,10.5,6.9L922.2,1095.5z M1503,1081.5l-1.2-1.7c3.4-2.4,6.8-4.9,10.1-7.4l1.3,1.7
							C1509.8,1076.6,1506.4,1079.1,1503,1081.5z M901.4,1081.3c-3.4-2.4-6.8-4.9-10.2-7.5l1.3-1.7c3.3,2.5,6.7,5,10.1,7.4
							L901.4,1081.3z M1523.1,1066.4l-1.3-1.6c3.3-2.6,6.5-5.2,9.7-7.9l1.3,1.6C1529.7,1061.1,1526.4,1063.8,1523.1,1066.4z
							 M881.2,1066.1c-3.3-2.6-6.6-5.3-9.8-7.9l1.3-1.6c3.2,2.7,6.5,5.3,9.7,7.9L881.2,1066.1z M1542.5,1050.3l-1.4-1.6
							c3.1-2.7,6.3-5.5,9.3-8.4l1.4,1.5C1548.8,1044.7,1545.6,1047.5,1542.5,1050.3z M861.9,1050c-3.1-2.8-6.3-5.6-9.4-8.4l1.4-1.5
							c3.1,2.8,6.2,5.6,9.3,8.4L861.9,1050z M1561,1033.3l-1.5-1.5c3-2.9,6-5.8,8.9-8.8l1.5,1.5
							C1567,1027.4,1564,1030.4,1561,1033.3z M843.4,1032.9c-3-2.9-6-5.9-9-8.9l1.5-1.5c2.9,3,5.9,5.9,8.9,8.8L843.4,1032.9z
							 M1578.7,1015.4l-1.5-1.4c2.9-3,5.7-6.1,8.5-9.2l1.6,1.4C1584.4,1009.2,1581.6,1012.3,1578.7,1015.4z M825.7,1015
							c-2.9-3-5.7-6.2-8.5-9.3l1.6-1.4c2.8,3.1,5.6,6.2,8.5,9.2L825.7,1015z M1595.5,996.6l-1.6-1.4c2.7-3.2,5.4-6.4,8-9.6l1.6,1.3
							C1601,990.2,1598.3,993.4,1595.5,996.6z M808.9,996.3c-2.7-3.2-5.4-6.4-8.1-9.7l1.6-1.3c2.6,3.2,5.3,6.5,8,9.6L808.9,996.3z
							 M1611.4,977.1l-1.7-1.3c2.5-3.3,5.1-6.7,7.6-10l1.7,1.2C1616.6,970.4,1614,973.8,1611.4,977.1z M793,976.8
							c-2.6-3.3-5.1-6.7-7.6-10l1.7-1.2c2.5,3.3,5,6.7,7.5,10L793,976.8z M1626.4,956.8l-1.7-1.2c2.4-3.4,4.8-6.9,7.1-10.4l1.7,1.2
							C1631.2,949.8,1628.8,953.3,1626.4,956.8z M778.1,956.5c-2.4-3.4-4.8-6.9-7.1-10.4l1.7-1.2c2.3,3.5,4.7,6.9,7,10.4
							L778.1,956.5z M1640.3,935.8l-1.8-1.1c2.2-3.5,4.4-7.1,6.6-10.7l1.8,1.1C1644.8,928.6,1642.6,932.2,1640.3,935.8z
							 M764.2,935.5c-2.2-3.5-4.4-7.1-6.6-10.7l1.8-1.1c2.1,3.6,4.3,7.2,6.5,10.7L764.2,935.5z M1653.2,914.1l-1.8-1
							c2-3.6,4.1-7.3,6-11l1.9,1C1657.3,906.7,1655.3,910.5,1653.2,914.1z M751.4,914c-2-3.6-4.1-7.3-6-11l1.9-1c1.9,3.7,4,7.4,6,11
							L751.4,914z M1665.1,891.8l-1.9-0.9c1.9-3.7,3.7-7.5,5.5-11.3l1.9,0.9C1668.8,884.2,1666.9,888.1,1665.1,891.8z M739.6,891.8
							c-1.9-3.7-3.7-7.5-5.5-11.3l1.9-0.9c1.8,3.8,3.6,7.5,5.5,11.3L739.6,891.8z M728.9,869.1c-1.7-3.8-3.3-7.7-4.9-11.5l1.9-0.8
							c1.6,3.8,3.2,7.7,4.9,11.5L728.9,869.1z M1675.8,869l-1.9-0.8c1.7-3.8,3.3-7.7,4.9-11.6l1.9,0.8
							C1679.2,861.2,1677.5,865.1,1675.8,869z M719.3,845.8c-1.5-3.9-3-7.9-4.4-11.8l2-0.7c1.4,3.9,2.9,7.9,4.3,11.8L719.3,845.8z
							 M1685.4,845.6l-2-0.7c1.5-3.9,3-7.9,4.4-11.8l2,0.7C1688.4,837.7,1686.9,841.7,1685.4,845.6z M710.9,822.1
							c-1.3-4-2.6-8-3.8-12l2-0.6c1.2,4,2.5,8,3.8,12L710.9,822.1z M1693.9,821.8l-2-0.7c1.3-4,2.6-8,3.8-12l2,0.6
							C1696.4,813.8,1695.2,817.8,1693.9,821.8z M703.7,798c-1.1-4-2.2-8.1-3.2-12.2l2-0.5c1,4,2.1,8.1,3.2,12.1L703.7,798z
							 M1701.1,797.6l-2-0.6c1.1-4,2.2-8.1,3.2-12.1l2,0.5C1703.3,789.5,1702.2,793.6,1701.1,797.6z M697.6,773.5
							c-0.9-4.1-1.8-8.2-2.6-12.3l2.1-0.4c0.8,4.1,1.7,8.2,2.6,12.3L697.6,773.5z M1707.2,773.2l-2-0.5c0.9-4.1,1.8-8.2,2.6-12.3
							l2.1,0.4C1708.9,765,1708.1,769.1,1707.2,773.2z M692.7,748.8c-0.7-4.1-1.4-8.3-2-12.4l2.1-0.3c0.6,4.1,1.3,8.3,2,12.4
							L692.7,748.8z M1712,748.5l-2.1-0.4c0.7-4.1,1.4-8.3,2-12.4l2.1,0.3C1713.4,740.2,1712.7,744.4,1712,748.5z M689.1,723.9
							c-0.5-4.1-1-8.4-1.4-12.5l2.1-0.2c0.4,4.1,0.9,8.3,1.4,12.5L689.1,723.9z M1715.7,723.6l-2.1-0.3c0.5-4.1,1-8.3,1.4-12.5
							l2.1,0.2C1716.6,715.2,1716.2,719.4,1715.7,723.6z M686.6,698.8c-0.3-4.2-0.6-8.4-0.8-12.6l2.1-0.1c0.2,4.2,0.5,8.4,0.8,12.5
							L686.6,698.8z M1718.1,698.5l-2.1-0.1c0.3-4.1,0.6-8.4,0.8-12.5l2.1,0.1C1718.6,690.1,1718.4,694.4,1718.1,698.5z
							 M685.4,673.7c-0.1-4.2-0.2-8.4-0.2-12.6l2.1,0c0,4.2,0.1,8.4,0.2,12.5L685.4,673.7z M1719.3,673.4l-2.1-0.1
							c0.1-4.2,0.1-8.4,0.1-12.5v-0.7l2.1,0v0.7C1719.4,665,1719.4,669.2,1719.3,673.4z M687.5,648.6l-2.1,0
							c0.1-4.2,0.2-8.4,0.4-12.6l2.1,0.1C687.7,640.2,687.6,644.4,687.5,648.6z M1717.2,647.5c-0.1-4.2-0.3-8.4-0.5-12.5l2.1-0.1
							c0.2,4.2,0.4,8.4,0.5,12.6L1717.2,647.5z M688.7,623.5l-2.1-0.2c0.3-4.2,0.7-8.4,1-12.5l2.1,0.2
							C689.3,615.2,689,619.4,688.7,623.5z M1715.9,622.5c-0.3-4.2-0.7-8.4-1.1-12.5l2.1-0.2c0.4,4.1,0.8,8.4,1.1,12.5L1715.9,622.5
							z M691.1,598.6l-2.1-0.3c0.5-4.2,1.1-8.4,1.7-12.5l2.1,0.3C692.1,590.2,691.6,594.4,691.1,598.6z M1713.5,597.5
							c-0.5-4.1-1.1-8.3-1.7-12.4l2.1-0.3c0.6,4.1,1.2,8.3,1.7,12.5L1713.5,597.5z M694.7,573.7l-2.1-0.4c0.7-4.1,1.5-8.3,2.3-12.4
							l2.1,0.4C696.1,565.5,695.4,569.6,694.7,573.7z M1709.8,572.7c-0.7-4.1-1.5-8.3-2.3-12.3l2.1-0.4c0.8,4.1,1.6,8.3,2.3,12.4
							L1709.8,572.7z M699.5,549.1l-2-0.5c0.9-4.1,1.9-8.2,2.9-12.3l2,0.5C701.3,541,700.4,545.1,699.5,549.1z M1705,548.1
							c-0.9-4.1-1.9-8.2-2.9-12.2l2-0.5c1,4.1,2,8.2,2.9,12.3L1705,548.1z M705.5,524.8l-2-0.6c1.1-4,2.3-8.1,3.5-12.1l2,0.6
							C707.8,516.7,706.6,520.8,705.5,524.8z M1698.9,523.8c-1.1-4-2.3-8.1-3.5-12l2-0.6c1.2,4,2.4,8.1,3.5,12.1L1698.9,523.8z
							 M712.7,500.8l-2-0.7c1.3-4,2.7-8,4.1-12l2,0.7C715.4,492.8,714,496.8,712.7,500.8z M1691.7,499.8c-1.3-4-2.7-7.9-4.1-11.9
							l2-0.7c1.4,3.9,2.8,7.9,4.1,11.9L1691.7,499.8z M721.1,477l-2-0.7c1.5-3.9,3.1-7.9,4.7-11.7l1.9,0.8
							C724.1,469.2,722.6,473.1,721.1,477z M1683.2,476.2c-1.5-3.9-3.1-7.8-4.6-11.6l1.9-0.8c1.6,3.9,3.2,7.8,4.7,11.7L1683.2,476.2
							z M730.6,453.8l-1.9-0.8c1.7-3.8,3.4-7.7,5.2-11.5l1.9,0.9C734.1,446.1,732.3,450,730.6,453.8z M1673.7,453
							c-1.7-3.8-3.4-7.6-5.2-11.4l1.9-0.9c1.8,3.8,3.5,7.6,5.2,11.4L1673.7,453z M741.3,431l-1.9-0.9c1.9-3.7,3.8-7.5,5.8-11.2
							l1.9,1C745.1,423.5,743.2,427.3,741.3,431z M1663.1,430.4c-1.9-3.7-3.8-7.5-5.7-11.1l1.8-1c2,3.7,3.9,7.4,5.8,11.2
							L1663.1,430.4z M753.1,408.8l-1.8-1c2-3.6,4.2-7.3,6.3-10.9l1.8,1.1C757.2,401.5,755.1,405.2,753.1,408.8z M1651.3,408.3
							c-2-3.6-4.1-7.3-6.3-10.8l1.8-1.1c2.1,3.6,4.3,7.2,6.3,10.9L1651.3,408.3z M765.9,387.2l-1.8-1.1c2.2-3.5,4.5-7.1,6.8-10.6
							l1.7,1.2C770.4,380.2,768.1,383.7,765.9,387.2z M1638.5,386.8c-2.2-3.5-4.5-7.1-6.8-10.5l1.7-1.2c2.3,3.5,4.6,7,6.8,10.6
							L1638.5,386.8z M779.8,366.3l-1.7-1.2c2.4-3.4,4.9-6.9,7.3-10.2l1.7,1.2C784.6,359.5,782.2,362.9,779.8,366.3z M1624.6,365.9
							c-2.4-3.4-4.8-6.8-7.3-10.2l1.7-1.2c2.5,3.4,4.9,6.8,7.3,10.2L1624.6,365.9z M794.7,346.1l-1.7-1.3c2.6-3.3,5.2-6.6,7.8-9.9
							l1.6,1.3C799.8,339.5,797.2,342.8,794.7,346.1z M1609.8,345.8c-2.5-3.3-5.2-6.6-7.8-9.8l1.6-1.3c2.6,3.2,5.3,6.5,7.8,9.9
							L1609.8,345.8z M810.5,326.6l-1.6-1.4c2.7-3.2,5.5-6.4,8.3-9.5l1.6,1.4C816,320.3,813.2,323.4,810.5,326.6z M1594,326.3
							c-2.7-3.2-5.5-6.3-8.3-9.4l1.6-1.4c2.8,3.1,5.6,6.3,8.3,9.5L1594,326.3z M827.2,307.9l-1.5-1.4c2.9-3,5.8-6.1,8.7-9.1l1.5,1.5
							C833,301.9,830.1,304.9,827.2,307.9z M1577.2,307.7c-2.8-3-5.8-6.1-8.7-9l1.5-1.5c2.9,3,5.9,6,8.7,9.1L1577.2,307.7z
							 M844.9,290.1l-1.5-1.5c3-2.9,6.1-5.8,9.2-8.6l1.4,1.5C850.9,284.3,847.8,287.2,844.9,290.1z M1559.6,289.9
							c-3-2.9-6.1-5.8-9.1-8.6l1.4-1.5c3.1,2.8,6.2,5.7,9.2,8.6L1559.6,289.9z M863.3,273.1l-1.4-1.6c3.1-2.7,6.4-5.5,9.6-8.2
							l1.3,1.6C869.6,267.6,866.4,270.4,863.3,273.1z M1541.1,272.9c-3.1-2.7-6.3-5.5-9.5-8.1l1.3-1.6c3.2,2.7,6.4,5.4,9.6,8.2
							L1541.1,272.9z M882.6,257.1l-1.3-1.6c3.3-2.6,6.6-5.2,9.9-7.7l1.3,1.7C889.2,251.9,885.8,254.5,882.6,257.1z M1521.8,256.8
							c-3.3-2.6-6.6-5.2-9.9-7.7l1.3-1.7c3.3,2.5,6.7,5.1,10,7.7L1521.8,256.8z M902.6,242l-1.2-1.7c3.4-2.4,6.8-4.8,10.3-7.2
							l1.2,1.7C909.4,237.2,905.9,239.6,902.6,242z M1501.8,241.7c-3.4-2.4-6.9-4.8-10.3-7.2l1.2-1.7c3.5,2.4,6.9,4.8,10.3,7.2
							L1501.8,241.7z M923.3,227.9l-1.1-1.8c3.5-2.3,7.1-4.5,10.6-6.7l1.1,1.8C930.3,223.4,926.8,225.6,923.3,227.9z M1481,227.6
							c-3.5-2.3-7.1-4.5-10.6-6.7l1.1-1.8c3.6,2.2,7.2,4.4,10.7,6.7L1481,227.6z M944.6,214.8l-1.1-1.8c3.6-2.1,7.3-4.2,10.9-6.2
							l1,1.8C951.9,210.7,948.2,212.7,944.6,214.8z M1459.6,214.5c-3.6-2.1-7.3-4.2-11-6.2l1-1.8c3.7,2,7.4,4.1,11,6.2L1459.6,214.5
							z M966.6,202.8l-1-1.9c3.7-1.9,7.5-3.8,11.2-5.6l0.9,1.9C974,199,970.2,200.9,966.6,202.8z M1437.5,202.5
							c-3.7-1.9-7.5-3.8-11.2-5.6l0.9-1.9c3.8,1.8,7.6,3.7,11.3,5.6L1437.5,202.5z M989,191.9l-0.9-1.9c3.8-1.7,7.7-3.4,11.5-5.1
							l0.8,1.9C996.7,188.5,992.8,190.2,989,191.9z M1414.9,191.6c-3.8-1.7-7.7-3.4-11.5-5.1l0.8-1.9c3.9,1.6,7.7,3.3,11.6,5.1
							L1414.9,191.6z M1012,182.1l-0.8-1.9c3.9-1.5,7.8-3.1,11.8-4.5l0.7,2C1019.8,179,1015.9,180.6,1012,182.1z M1391.8,181.7
							c-3.9-1.5-7.8-3-11.8-4.5l0.7-2c3.9,1.4,7.9,3,11.8,4.5L1391.8,181.7z M1035.6,173.4l-0.7-2c3.9-1.4,8-2.7,12-3.9l0.6,2
							C1043.5,170.7,1039.5,172,1035.6,173.4z M1368.1,173.1c-4-1.3-8-2.7-12-3.9l0.6-2c4,1.3,8,2.6,12,3.9L1368.1,173.1z
							 M1059.5,165.9l-0.6-2c4-1.2,8.1-2.3,12.1-3.3l0.5,2C1067.5,163.6,1063.5,164.7,1059.5,165.9z M1344.2,165.6
							c-4-1.1-8.1-2.3-12.1-3.3l0.5-2c4,1,8.1,2.2,12.2,3.3L1344.2,165.6z M1083.7,159.5l-0.5-2c4.1-1,8.2-1.9,12.3-2.7l0.4,2
							C1091.9,157.6,1087.8,158.6,1083.7,159.5z M1319.9,159.3c-4.1-0.9-8.2-1.9-12.2-2.7l0.4-2.1c4.1,0.8,8.2,1.8,12.3,2.7
							L1319.9,159.3z M1108.3,154.4l-0.4-2.1c4.1-0.8,8.3-1.5,12.4-2.1l0.3,2.1C1116.5,152.9,1112.4,153.6,1108.3,154.4z
							 M1295.3,154.2c-4.1-0.7-8.2-1.5-12.4-2.1l0.3-2.1c4.1,0.7,8.3,1.4,12.4,2.1L1295.3,154.2z M1133,150.4l-0.3-2.1
							c4.1-0.6,8.3-1.1,12.5-1.5l0.2,2.1C1141.3,149.3,1137.2,149.9,1133,150.4z M1270.6,150.3c-4.1-0.5-8.3-1-12.5-1.5l0.2-2.1
							c4.2,0.4,8.4,1,12.5,1.5L1270.6,150.3z M1158,147.7l-0.2-2.1c4.2-0.4,8.4-0.7,12.6-0.9l0.1,2.1
							C1166.3,147,1162.1,147.3,1158,147.7z M1245.6,147.6c-4.1-0.3-8.4-0.6-12.5-0.9l0.1-2.1c4.2,0.2,8.4,0.5,12.6,0.9
							L1245.6,147.6z M1183,146.1l-0.1-2.1c4.2-0.2,8.4-0.3,12.6-0.3l0,2.1C1191.4,145.9,1187.1,146,1183,146.1z M1220.6,146.1
							c-4.1-0.1-8.4-0.2-12.5-0.3l0-2.1c4.2,0,8.4,0.1,12.6,0.3L1220.6,146.1z"/>
					</g>
					<g>
						<path class="st0" d="M1196.2,1280.6c-4.2,0-8.4-0.1-12.6-0.2l0.1-2.1c4.1,0.1,8.4,0.2,12.5,0.2L1196.2,1280.6z M1208.8,1280.6
							l0-2.1c4.1,0,8.4-0.1,12.5-0.3l0.1,2.1C1217.2,1280.5,1213,1280.5,1208.8,1280.6z M1171.1,1279.9c-4.2-0.2-8.4-0.5-12.5-0.7
							l0.1-2.1c4.1,0.3,8.3,0.5,12.5,0.7L1171.1,1279.9z M1233.9,1279.8l-0.1-2.1c4.1-0.2,8.3-0.5,12.5-0.8l0.1,2.1
							C1242.3,1279.4,1238.1,1279.6,1233.9,1279.8z M1146.1,1278.1c-4.2-0.4-8.4-0.8-12.5-1.2l0.2-2.1c4.1,0.5,8.3,0.9,12.5,1.2
							L1146.1,1278.1z M1259,1278.1l-0.2-2.1c4.1-0.4,8.3-0.8,12.5-1.3l0.2,2.1C1267.3,1277.3,1263.1,1277.7,1259,1278.1z
							 M1121.1,1275.3c-4.1-0.5-8.3-1.1-12.4-1.8l0.3-2.1c4.1,0.6,8.3,1.2,12.4,1.7L1121.1,1275.3z M1283.9,1275.3l-0.3-2.1
							c4.1-0.5,8.3-1.1,12.4-1.8l0.3,2.1C1292.3,1274.2,1288.1,1274.8,1283.9,1275.3z M1096.3,1271.6c-4.1-0.7-8.3-1.5-12.4-2.3
							l0.4-2.1c4.1,0.8,8.2,1.5,12.3,2.3L1096.3,1271.6z M1308.8,1271.5l-0.4-2.1c4.1-0.7,8.2-1.5,12.3-2.3l0.4,2.1
							C1317,1270,1312.9,1270.8,1308.8,1271.5z M1071.6,1266.8c-4.1-0.9-8.2-1.8-12.3-2.8l0.5-2c4.1,1,8.2,1.9,12.2,2.8
							L1071.6,1266.8z M1333.4,1266.7l-0.4-2c4.1-0.9,8.2-1.8,12.2-2.8l0.5,2C1341.6,1264.9,1337.5,1265.9,1333.4,1266.7z
							 M1047.1,1261c-4-1-8.1-2.1-12.1-3.3l0.6-2c4,1.1,8.1,2.2,12.1,3.3L1047.1,1261z M1357.9,1260.9l-0.5-2c4-1,8.1-2.1,12.1-3.3
							l0.6,2C1366,1258.8,1361.9,1259.9,1357.9,1260.9z M1022.9,1254.3c-4-1.2-8.1-2.5-12-3.8l0.6-2c4,1.3,8,2.5,12,3.8
							L1022.9,1254.3z M1382.1,1254.2l-0.6-2c4-1.2,8-2.5,11.9-3.7l0.6,2C1390.1,1251.7,1386.1,1253,1382.1,1254.2z M999,1246.5
							c-4-1.4-7.9-2.8-11.9-4.3l0.7-2c3.9,1.5,7.9,2.9,11.8,4.2L999,1246.5z M1406,1246.4l-0.7-2c3.9-1.4,7.9-2.8,11.8-4.2l0.7,2
							C1413.9,1243.6,1409.9,1245,1406,1246.4z M975.3,1237.7c-3.9-1.5-7.8-3.1-11.7-4.7l0.8-1.9c3.8,1.6,7.8,3.2,11.6,4.7
							L975.3,1237.7z M1429.5,1237.7l-0.8-2c3.8-1.5,7.7-3.1,11.6-4.7l0.8,1.9C1437.3,1234.6,1433.4,1236.1,1429.5,1237.7z
							 M952.1,1228c-3.8-1.7-7.7-3.4-11.5-5.2l0.9-1.9c3.8,1.8,7.6,3.5,11.4,5.2L952.1,1228z M1452.6,1228l-0.8-1.9
							c3.8-1.7,7.6-3.4,11.4-5.2l0.9,1.9C1460.3,1224.6,1456.4,1226.3,1452.6,1228z M1475.3,1217.4l-0.9-1.9
							c3.7-1.8,7.5-3.7,11.1-5.6l1,1.9C1482.8,1213.7,1479,1215.6,1475.3,1217.4z M929.2,1217.4c-3.8-1.8-7.5-3.8-11.2-5.7l1-1.9
							c3.7,1.9,7.5,3.8,11.2,5.7L929.2,1217.4z M1497.6,1205.9l-1-1.8c3.6-2,7.3-4,10.9-6.1l1,1.8
							C1504.9,1201.9,1501.2,1204,1497.6,1205.9z M906.9,1205.8c-3.7-2-7.4-4-11-6.1l1-1.8c3.6,2.1,7.3,4.1,11,6.1L906.9,1205.8z
							 M1519.4,1193.5l-1.1-1.8c3.5-2.1,7.1-4.3,10.7-6.5l1.1,1.8C1526.5,1189.2,1522.9,1191.4,1519.4,1193.5z M885,1193.3
							c-3.6-2.1-7.2-4.3-10.7-6.6l1.1-1.8c3.5,2.2,7.1,4.4,10.7,6.5L885,1193.3z M1540.6,1180.3l-1.1-1.8c3.5-2.3,7-4.6,10.4-6.9
							l1.2,1.7C1547.6,1175.6,1544.1,1178,1540.6,1180.3z M863.7,1180c-3.5-2.3-7-4.6-10.5-7l1.2-1.7c3.4,2.3,6.9,4.7,10.4,7
							L863.7,1180z M1561.3,1166.1l-1.2-1.7c3.4-2.4,6.8-4.9,10.1-7.4l1.2,1.7C1568.2,1161.2,1564.7,1163.7,1561.3,1166.1z
							 M842.9,1165.8c-3.4-2.4-6.8-4.9-10.2-7.4l1.3-1.7c3.3,2.5,6.7,5,10.1,7.4L842.9,1165.8z M1581.5,1151.2l-1.3-1.7
							c3.3-2.5,6.6-5.1,9.8-7.8l1.3,1.6C1588.1,1146,1584.8,1148.6,1581.5,1151.2z M822.7,1150.8c-3.3-2.6-6.6-5.2-9.9-7.8l1.3-1.6
							c3.2,2.6,6.5,5.2,9.8,7.8L822.7,1150.8z M1601,1135.4l-1.3-1.6c3.2-2.7,6.4-5.4,9.5-8.1l1.4,1.6
							C1607.4,1130,1604.2,1132.7,1601,1135.4z M803.2,1135c-3.2-2.7-6.4-5.4-9.5-8.2l1.4-1.6c3.1,2.7,6.3,5.5,9.5,8.2L803.2,1135z
							 M1619.9,1118.9l-1.4-1.5c3.1-2.8,6.1-5.7,9.2-8.5l1.4,1.5C1626.1,1113.2,1623,1116.1,1619.9,1118.9z M784.3,1118.4
							c-3.1-2.8-6.2-5.7-9.2-8.6l1.4-1.5c3,2.9,6.1,5.7,9.2,8.5L784.3,1118.4z M1638.1,1101.6l-1.5-1.5c3-2.9,5.9-5.9,8.8-8.9
							l1.5,1.5C1644.1,1095.6,1641.1,1098.6,1638.1,1101.6z M766.1,1101.1c-3-2.9-5.9-5.9-8.8-8.9l1.5-1.5c2.9,3,5.9,6,8.8,8.9
							L766.1,1101.1z M1655.6,1083.6l-1.5-1.4c2.8-3,5.7-6.1,8.5-9.2l1.6,1.4C1661.3,1077.4,1658.5,1080.5,1655.6,1083.6z
							 M748.6,1083.1c-2.8-3-5.7-6.2-8.5-9.3l1.6-1.4c2.8,3.1,5.6,6.2,8.4,9.2L748.6,1083.1z M1672.4,1064.8l-1.6-1.4
							c2.7-3.2,5.4-6.4,8.1-9.6l1.6,1.3C1677.9,1058.4,1675.1,1061.7,1672.4,1064.8z M731.9,1064.4c-2.7-3.2-5.4-6.4-8.1-9.6
							l1.6-1.3c2.6,3.2,5.3,6.4,8.1,9.6L731.9,1064.4z M1688.4,1045.5l-1.6-1.3c2.6-3.3,5.2-6.6,7.7-9.9l1.7,1.3
							C1693.6,1038.9,1691,1042.2,1688.4,1045.5z M715.9,1045c-2.6-3.3-5.2-6.6-7.7-9.9l1.7-1.3c2.5,3.3,5.1,6.6,7.7,9.9L715.9,1045
							z M1703.6,1025.4l-1.7-1.2c2.5-3.4,4.9-6.8,7.3-10.2l1.7,1.2C1708.5,1018.6,1706.1,1022.1,1703.6,1025.4z M700.7,1025
							c-2.5-3.4-4.9-6.8-7.3-10.2l1.7-1.2c2.4,3.4,4.8,6.8,7.3,10.2L700.7,1025z M1718,1004.8l-1.7-1.2c2.3-3.5,4.6-7,6.9-10.5
							l1.8,1.1C1722.7,997.8,1720.3,1001.3,1718,1004.8z M686.4,1004.4c-2.3-3.5-4.6-7-6.9-10.5l1.8-1.1c2.2,3.5,4.5,7,6.8,10.5
							L686.4,1004.4z M1731.6,983.6l-1.8-1.1c2.2-3.6,4.3-7.2,6.4-10.8l1.8,1.1C1735.9,976.4,1733.8,980,1731.6,983.6z M672.9,983.3
							c-2.2-3.5-4.3-7.2-6.4-10.8l1.8-1.1c2.1,3.6,4.2,7.2,6.4,10.7L672.9,983.3z M1744.3,961.9l-1.8-1c2-3.6,4-7.3,6-11l1.9,1
							C1748.3,954.5,1746.3,958.2,1744.3,961.9z M660.3,961.6c-2-3.6-4-7.3-6-11l1.9-1c1.9,3.7,3.9,7.4,6,11L660.3,961.6z
							 M1756.1,939.7l-1.9-0.9c1.9-3.7,3.7-7.5,5.5-11.3l1.9,0.9C1759.8,932.1,1757.9,935.9,1756.1,939.7z M648.5,939.5
							c-1.9-3.7-3.7-7.5-5.5-11.2l1.9-0.9c1.8,3.7,3.6,7.5,5.5,11.2L648.5,939.5z M1766.9,916.9l-1.9-0.9c1.7-3.8,3.4-7.7,5.1-11.5
							l1.9,0.8C1770.4,909.3,1768.7,913.1,1766.9,916.9z M637.7,916.9c-1.7-3.8-3.4-7.6-5.1-11.5l1.9-0.8c1.6,3.8,3.3,7.6,5,11.4
							L637.7,916.9z M627.8,893.9c-1.6-3.9-3.1-7.8-4.6-11.7l2-0.7c1.5,3.9,3,7.8,4.6,11.6L627.8,893.9z M1776.9,893.8l-1.9-0.8
							c1.6-3.9,3.1-7.8,4.6-11.7l2,0.7C1780,886,1778.5,889.9,1776.9,893.8z M618.9,870.4c-1.4-3.9-2.8-7.9-4.1-11.9l2-0.7
							c1.3,3.9,2.7,7.9,4.1,11.8L618.9,870.4z M1785.9,870.3l-2-0.7c1.4-3.9,2.8-7.9,4.1-11.9l2,0.7
							C1788.7,862.3,1787.3,866.3,1785.9,870.3z M610.8,846.6c-1.3-4-2.5-8-3.6-12l2-0.6c1.2,4,2.4,8,3.6,12L610.8,846.6z
							 M1793.9,846.4l-2-0.6c1.2-4,2.5-8,3.6-12l2,0.6C1796.4,838.3,1795.2,842.4,1793.9,846.4z M603.8,822.5
							c-1.1-4-2.1-8.1-3.1-12.2l2-0.5c1,4,2.1,8.1,3.1,12.1L603.8,822.5z M1801,822.2l-2-0.5c1.1-4,2.1-8.1,3.1-12.1l2,0.5
							C1803.1,814.1,1802,818.2,1801,822.2z M597.8,798.1c-0.9-4.1-1.8-8.2-2.6-12.3l2.1-0.4c0.8,4.1,1.7,8.2,2.6,12.2L597.8,798.1z
							 M1807,797.8l-2-0.5c0.9-4.1,1.8-8.2,2.6-12.2l2.1,0.4C1808.8,789.6,1807.9,793.8,1807,797.8z M592.7,773.5
							c-0.8-4.1-1.5-8.3-2.1-12.4l2.1-0.3c0.7,4.1,1.4,8.2,2.1,12.3L592.7,773.5z M1812,773.2l-2.1-0.4c0.7-4.1,1.5-8.2,2.1-12.3
							l2.1,0.3C1813.5,765,1812.8,769.1,1812,773.2z M588.7,748.7c-0.6-4.1-1.1-8.3-1.6-12.5l2.1-0.2c0.5,4.1,1,8.3,1.6,12.4
							L588.7,748.7z M1816,748.4l-2.1-0.3c0.6-4.1,1.1-8.3,1.6-12.4l2.1,0.3C1817.2,740.1,1816.6,744.3,1816,748.4z M585.7,723.8
							c-0.4-4.1-0.8-8.4-1.1-12.5l2.1-0.2c0.3,4.1,0.7,8.3,1.1,12.5L585.7,723.8z M1819.1,723.5l-2.1-0.2c0.4-4.1,0.8-8.3,1.1-12.5
							l2.1,0.2C1819.9,715.1,1819.5,719.3,1819.1,723.5z M583.6,698.7c-0.3-4.2-0.5-8.4-0.6-12.5l2.1-0.1c0.2,4.2,0.4,8.4,0.6,12.5
							L583.6,698.7z M1821.1,698.4l-2.1-0.1c0.2-4.1,0.5-8.3,0.6-12.5l2.1,0.1C1821.5,690.1,1821.3,694.3,1821.1,698.4z
							 M582.6,673.7c-0.1-4.2-0.1-8.4-0.1-12.6h2.1c0,4.1,0,8.4,0.1,12.5L582.6,673.7z M1822.1,673.3l-2.1,0
							c0.1-4.1,0.1-8.4,0.1-12.5v-0.6h2.1v0.6C1822.2,665,1822.1,669.2,1822.1,673.3z M584.7,648.6l-2.1,0c0.1-4.2,0.2-8.4,0.4-12.6
							l2.1,0.1C584.9,640.2,584.8,644.4,584.7,648.6z M1820,647.6c-0.1-4.1-0.2-8.3-0.4-12.5l2.1-0.1c0.2,4.2,0.3,8.4,0.4,12.5
							L1820,647.6z M585.7,623.6l-2.1-0.1c0.2-4.2,0.5-8.4,0.9-12.5l2.1,0.2C586.2,615.2,585.9,619.4,585.7,623.6z M1818.9,622.6
							c-0.3-4.2-0.6-8.4-0.9-12.5l2.1-0.2c0.3,4.1,0.6,8.4,0.9,12.5L1818.9,622.6z M587.7,598.6l-2.1-0.2c0.4-4.2,0.9-8.4,1.4-12.5
							l2.1,0.3C588.6,590.3,588.1,594.5,587.7,598.6z M1816.9,597.7c-0.4-4.1-0.9-8.3-1.4-12.4l2.1-0.3c0.5,4.1,1,8.3,1.4,12.5
							L1816.9,597.7z M590.7,573.7l-2.1-0.3c0.6-4.1,1.2-8.3,1.9-12.4l2.1,0.3C591.9,565.5,591.3,569.6,590.7,573.7z M1813.9,572.8
							c-0.6-4.1-1.2-8.3-1.9-12.4l2.1-0.3c0.7,4.1,1.3,8.3,1.9,12.4L1813.9,572.8z M594.7,549l-2.1-0.4c0.7-4.1,1.6-8.3,2.4-12.3
							l2.1,0.4C596.2,540.8,595.4,544.9,594.7,549z M1809.8,548.1c-0.8-4.1-1.6-8.2-2.4-12.3l2.1-0.4c0.8,4.1,1.6,8.2,2.4,12.3
							L1809.8,548.1z M599.7,524.5l-2-0.5c0.9-4.1,1.9-8.2,2.9-12.2l2,0.5C601.6,516.3,600.6,520.4,599.7,524.5z M1804.8,523.6
							c-0.9-4.1-1.9-8.2-2.9-12.2l2-0.5c1,4,2,8.1,2.9,12.2L1804.8,523.6z M605.7,500.2l-2-0.5c1.1-4,2.2-8.1,3.4-12.1l2,0.6
							C607.9,492.1,606.7,496.2,605.7,500.2z M1798.8,499.3c-1.1-4-2.2-8.1-3.4-12.1l2-0.6c1.2,4,2.3,8.1,3.4,12.1L1798.8,499.3z
							 M612.7,476.1l-2-0.6c1.2-4,2.6-8,3.9-12l2,0.7C615.2,468.1,613.9,472.2,612.7,476.1z M1791.7,475.2c-1.2-4-2.5-8-3.9-11.9
							l2-0.7c1.3,4,2.6,8,3.9,11.9L1791.7,475.2z M620.6,452.3l-2-0.7c1.4-3.9,2.9-7.9,4.4-11.8l2,0.7
							C623.5,444.4,622.1,448.4,620.6,452.3z M1783.7,451.5c-1.4-3.9-2.9-7.9-4.4-11.7l2-0.8c1.5,3.9,3,7.9,4.4,11.8L1783.7,451.5z
							 M629.6,428.8l-1.9-0.8c1.6-3.9,3.2-7.8,4.9-11.6l1.9,0.8C632.8,421.1,631.2,425,629.6,428.8z M1774.8,428.1
							c-1.6-3.8-3.2-7.7-4.8-11.5l1.9-0.8c1.6,3.8,3.3,7.7,4.8,11.5L1774.8,428.1z M639.5,405.8l-1.9-0.9c1.7-3.8,3.5-7.6,5.3-11.4
							l1.9,0.9C643,398.2,641.2,402,639.5,405.8z M1764.9,405.2c-1.7-3.8-3.5-7.6-5.3-11.3l1.9-0.9c1.8,3.7,3.6,7.6,5.3,11.3
							L1764.9,405.2z M650.3,383.1l-1.9-0.9c1.9-3.7,3.8-7.5,5.8-11.2l1.9,1C654.2,375.7,652.2,379.4,650.3,383.1z M1754.1,382.7
							c-1.9-3.7-3.8-7.4-5.7-11.1l1.9-1c1.9,3.7,3.9,7.4,5.8,11.1L1754.1,382.7z M662.1,361l-1.8-1c2-3.7,4.1-7.3,6.2-10.9l1.8,1.1
							C666.2,353.7,664.1,357.3,662.1,361z M1742.4,360.7c-2-3.6-4.1-7.3-6.2-10.9l1.8-1.1c2.1,3.6,4.2,7.3,6.2,10.9L1742.4,360.7z
							 M674.7,339.3l-1.8-1.1c2.2-3.6,4.4-7.2,6.7-10.7l1.8,1.1C679.1,332.2,676.9,335.7,674.7,339.3z M1729.8,339.1
							c-2.2-3.5-4.4-7.1-6.6-10.6l1.8-1.1c2.2,3.5,4.5,7.1,6.6,10.6L1729.8,339.1z M688.2,318.2l-1.7-1.2c2.3-3.5,4.7-7,7.1-10.4
							l1.7,1.2C692.9,311.2,690.5,314.7,688.2,318.2z M1716.4,318c-2.3-3.5-4.7-6.9-7-10.3l1.7-1.2c2.4,3.4,4.8,6.9,7.1,10.4
							L1716.4,318z M702.6,297.6l-1.7-1.2c2.5-3.4,5-6.8,7.5-10.1l1.7,1.3C707.5,290.9,705,294.2,702.6,297.6z M1702.1,297.5
							c-2.4-3.4-5-6.7-7.5-10l1.7-1.3c2.5,3.3,5,6.7,7.5,10.1L1702.1,297.5z M717.7,277.6l-1.6-1.3c2.6-3.3,5.2-6.6,7.9-9.8l1.6,1.3
							C722.9,271.1,720.3,274.4,717.7,277.6z M1686.9,277.6c-2.6-3.2-5.2-6.5-7.9-9.7l1.6-1.3c2.7,3.2,5.3,6.5,7.9,9.8L1686.9,277.6
							z M733.7,258.3l-1.6-1.4c2.7-3.2,5.5-6.3,8.3-9.4l1.6,1.4C739.1,252,736.4,255.2,733.7,258.3z M1671,258.3
							c-2.7-3.1-5.5-6.3-8.3-9.4l1.6-1.4c2.8,3.1,5.6,6.3,8.3,9.4L1671,258.3z M1654.3,239.7c-2.8-3-5.7-6.1-8.6-9.1l1.5-1.5
							c2.9,3,5.8,6,8.7,9.1L1654.3,239.7z M750.4,239.7l-1.5-1.4c2.8-3,5.7-6.1,8.7-9.1l1.5,1.5
							C756.1,233.6,753.2,236.6,750.4,239.7z M1636.9,221.7c-3-2.9-6-5.9-9-8.7l1.4-1.5c3,2.9,6.1,5.8,9,8.7L1636.9,221.7z
							 M767.8,221.7l-1.5-1.5c3-2.9,6-5.9,9-8.7l1.4,1.5C773.8,215.8,770.8,218.8,767.8,221.7z M785.9,204.5l-1.4-1.5
							c3.1-2.8,6.2-5.6,9.4-8.4l1.4,1.6C792.1,198.8,789,201.7,785.9,204.5z M1618.7,204.5c-3.1-2.8-6.2-5.6-9.3-8.3l1.4-1.6
							c3.1,2.7,6.3,5.6,9.4,8.4L1618.7,204.5z M804.8,188l-1.3-1.6c3.2-2.7,6.4-5.4,9.7-8l1.3,1.6
							C811.2,182.6,807.9,185.3,804.8,188z M1599.9,187.9c-3.2-2.7-6.4-5.4-9.7-8l1.3-1.6c3.2,2.6,6.5,5.3,9.7,8L1599.9,187.9z
							 M824.2,172.2l-1.3-1.7c3.3-2.6,6.7-5.1,10-7.6l1.2,1.7C830.9,167.1,827.5,169.7,824.2,172.2z M1580.4,172.2
							c-3.3-2.6-6.7-5.1-10-7.6l1.2-1.7c3.3,2.5,6.7,5,10,7.6L1580.4,172.2z M844.3,157.3l-1.2-1.7c3.4-2.4,6.9-4.8,10.3-7.2
							l1.2,1.7C851.1,152.5,847.7,154.9,844.3,157.3z M1560.3,157.3c-3.4-2.4-6.8-4.8-10.3-7.2l1.2-1.7c3.5,2.4,6.9,4.8,10.3,7.2
							L1560.3,157.3z M864.9,143.2l-1.1-1.8c3.5-2.3,7-4.5,10.6-6.8l1.1,1.8C871.9,138.7,868.4,141,864.9,143.2z M1539.6,143.1
							c-3.5-2.3-7-4.5-10.6-6.7l1.1-1.8c3.5,2.2,7.1,4.5,10.6,6.8L1539.6,143.1z M886.1,130l-1.1-1.8c3.6-2.1,7.2-4.3,10.8-6.3
							l1,1.8C893.3,125.7,889.7,127.9,886.1,130z M1518.3,129.8c-3.6-2.1-7.2-4.3-10.8-6.3l1-1.8c3.6,2.1,7.3,4.2,10.9,6.3
							L1518.3,129.8z M907.8,117.6l-1-1.8c3.7-2,7.4-4,11.1-5.9l1,1.9C915.2,113.7,911.5,115.6,907.8,117.6z M1496.5,117.4
							c-3.7-2-7.4-4-11.1-5.9l1-1.9c3.7,1.9,7.5,3.9,11.1,5.9L1496.5,117.4z M930,106.1l-0.9-1.9c3.7-1.8,7.5-3.7,11.3-5.4l0.9,1.9
							C937.5,102.5,933.7,104.3,930,106.1z M1474.2,105.9c-3.7-1.8-7.5-3.7-11.3-5.4l0.9-1.9c3.8,1.8,7.6,3.6,11.4,5.4L1474.2,105.9
							z M952.6,95.6l-0.8-1.9c3.8-1.7,7.7-3.3,11.5-4.9l0.8,1.9C960.3,92.2,956.4,93.9,952.6,95.6z M1451.5,95.3
							c-3.8-1.7-7.7-3.3-11.5-4.9l0.8-1.9c3.9,1.6,7.8,3.3,11.6,5L1451.5,95.3z M975.6,86l-0.8-1.9c3.9-1.5,7.8-3,11.7-4.5l0.7,2
							C983.4,82.9,979.5,84.4,975.6,86z M1428.3,85.7c-3.9-1.5-7.8-3-11.7-4.5l0.7-2c3.9,1.4,7.9,3,11.8,4.5L1428.3,85.7z
							 M999.1,77.2l-0.7-2c3.9-1.4,7.9-2.7,11.9-4l0.6,2C1007,74.5,1003,75.9,999.1,77.2z M1404.7,76.9c-4-1.4-8-2.7-11.9-4l0.6-2
							c4,1.3,8,2.6,12,4L1404.7,76.9z M1022.9,69.5l-0.6-2c4-1.2,8.1-2.4,12.1-3.5l0.6,2C1030.9,67.1,1026.9,68.3,1022.9,69.5z
							 M1380.8,69.2c-4-1.2-8-2.4-12-3.5l0.6-2c4,1.1,8.1,2.3,12.1,3.5L1380.8,69.2z M1047,62.7l-0.5-2c4.1-1,8.2-2.1,12.2-3l0.5,2
							C1055.1,60.7,1051.1,61.7,1047,62.7z M1356.7,62.5c-4-1-8.1-2-12.2-3l0.5-2c4.1,1,8.2,2,12.2,3L1356.7,62.5z M1071.4,56.9
							l-0.4-2c4.1-0.9,8.2-1.7,12.3-2.5l0.4,2.1C1079.6,55.2,1075.4,56.1,1071.4,56.9z M1332.3,56.7c-4-0.9-8.2-1.7-12.3-2.5
							l0.4-2.1c4.1,0.8,8.3,1.6,12.3,2.5L1332.3,56.7z M1095.9,52.2l-0.4-2.1c4.1-0.7,8.3-1.4,12.4-2l0.3,2.1
							C1104.2,50.8,1100,51.4,1095.9,52.2z M1307.7,52c-4.1-0.7-8.2-1.4-12.4-2l0.3-2.1c4.1,0.6,8.3,1.3,12.4,2L1307.7,52z
							 M1120.7,48.4l-0.3-2.1c4.1-0.5,8.3-1.1,12.5-1.5l0.2,2.1C1129,47.3,1124.8,47.8,1120.7,48.4z M1283,48.2
							c-4.1-0.5-8.3-1-12.4-1.5l0.2-2.1c4.1,0.5,8.3,1,12.5,1.5L1283,48.2z M1145.6,45.6l-0.2-2.1c4.2-0.4,8.4-0.7,12.5-1l0.1,2.1
							C1153.9,44.9,1149.7,45.2,1145.6,45.6z M1258.1,45.5c-4.2-0.4-8.4-0.7-12.5-1l0.1-2.1c4.1,0.3,8.4,0.6,12.5,1L1258.1,45.5z
							 M1170.6,43.8l-0.1-2.1c4.2-0.2,8.4-0.4,12.6-0.5l0.1,2.1C1178.9,43.4,1174.7,43.6,1170.6,43.8z M1233.1,43.8
							c-4.1-0.2-8.3-0.4-12.5-0.5l0.1-2.1c4.2,0.1,8.4,0.3,12.6,0.5L1233.1,43.8z M1195.6,43.1l0-2.1c4.2,0,8.4-0.1,12.6,0l0,2.1
							C1203.9,43,1199.7,43,1195.6,43.1z"/>
					</g>
					<g>
						<path class="st0" d="M1202.3,1233c-77.2,0-152.2-15.1-222.7-45c-68.1-28.8-129.3-70.1-181.9-122.6
							c-52.6-52.6-93.8-113.7-122.6-181.9c-29.8-70.5-45-145.5-45-222.7s15.1-152.2,45-222.7c28.8-68.1,70.1-129.3,122.6-181.9
							c52.6-52.6,113.7-93.8,181.9-122.6c70.5-29.8,145.5-45,222.7-45c77.3,0,152.2,15.1,222.7,45c68.1,28.8,129.3,70.1,181.9,122.6
							c52.6,52.6,93.8,113.7,122.6,181.9c29.8,70.5,45,145.5,45,222.7s-15.1,152.2-45,222.7c-28.8,68.1-70.1,129.3-122.6,181.9
							c-52.6,52.6-113.7,93.8-181.9,122.6C1354.5,1217.9,1279.6,1233,1202.3,1233z M1202.3,89.6c-315,0-571.2,256.2-571.2,571.2
							S887.4,1232,1202.3,1232c315,0,571.2-256.2,571.2-571.2S1517.3,89.6,1202.3,89.6z"/>
					</g>
				</g>
			</g>
		</g>
		<path class="st2" d="M447.7,1079.4c0,15.9,13.5,28.7,30.1,28.7h1433.4c16.6,0,30.1-12.8,30.1-28.7l0,0c0-15.8-13.5-28.7-30.1-28.7
			H477.8C461.2,1050.7,447.7,1063.5,447.7,1079.4L447.7,1079.4z"/>
		<g>
			<polygon class="st3" points="1283,36.3 1219.9,50.2 1316,92 			"/>
			
				<rect x="1222.9" y="48.2" transform="matrix(0.3983 -0.9172 0.9172 0.3983 663.2519 1211.0004)" class="st4" width="63.5" height="103.6"/>
			
				<rect x="1219.9" y="59.1" transform="matrix(0.3983 -0.9172 0.9172 0.3983 668.6728 1210.0635)" class="st5" width="73.6" height="72.4"/>
			<polygon class="st6" points="1254.6,100.5 1194.1,109.4 1219.8,50.2 			"/>
			<polygon class="st6" points="1255.5,100.9 1290.2,151.2 1315.9,92 			"/>
			<polygon class="st7" points="1257.9,94 1194.2,109.2 1290.3,151 			"/>
			<polygon class="st8" points="1257.3,95.3 1194.2,109.2 1290.3,151 			"/>
		</g>
		<g>
			<polygon class="st3" points="623,535.4 585.3,645.2 739.1,536.8 			"/>
			
				<rect x="601.2" y="581.2" transform="matrix(0.817 -0.5766 0.5766 0.817 -240.9863 517.0729)" class="st4" width="186" height="114.1"/>
			
				<rect x="623.9" y="564.8" transform="matrix(0.817 -0.5766 0.5766 0.817 -237.6923 512.7301)" class="st5" width="130.1" height="132.1"/>
			<polygon class="st6" points="694.9,638.9 652.2,740 585.3,645.2 			"/>
			<polygon class="st6" points="696.3,637.9 805.9,631.6 739.1,536.8 			"/>
			<polygon class="st7" points="688.1,627.8 651.9,739.7 805.7,631.2 			"/>
			<polygon class="st8" points="689.6,629.8 651.9,739.7 805.7,631.2 			"/>
		</g>
		<g>
			<polygon class="st3" points="1886.6,629.3 1848.7,632.9 1901.8,664.3 			"/>
			
				<rect x="1846.7" y="634" transform="matrix(0.5085 -0.8611 0.8611 0.5085 344.7156 1932.8662)" class="st4" width="37.4" height="61"/>
			
				<rect x="1845.3" y="640.6" transform="matrix(0.5085 -0.8611 0.8611 0.5085 347.6364 1932.8995)" class="st5" width="43.3" height="42.7"/>
			<polygon class="st6" points="1865.3,664.8 1829.3,665.6 1848.7,632.9 			"/>
			<polygon class="st6" points="1865.8,665.1 1882.4,697 1901.8,664.3 			"/>
			<polygon class="st7" points="1867.7,661.3 1829.4,665.5 1882.5,696.9 			"/>
			<polygon class="st8" points="1867.3,662 1829.4,665.5 1882.5,696.9 			"/>
		</g>
		<path class="st9" d="M1459.9,168.8c12.9-22.3-21.8-21.2-33.1-11.1c0.4-19-27.4-62.8-41.9-29.8c-6.9,18.5,14.8,39.7,23.1,52.6
			l-1.8,3.2C1420.3,182,1450.7,184.7,1459.9,168.8z"/>
		<g>
			<g>
				<path class="st5" d="M934.5,69.2l-5.6-7.5l-5.9,4.4l5.6,7.5l-5.4,4l-5.6-7.5l-5.9,4.4l5.6,7.5l-5.4,4l-5.6-7.5l-5.9,4.4l5.6,7.5
					l-5.4,4L895,87l-5.9,4.4l5.6,7.5l-5.4,4l-5.6-7.5l-5.9,4.4l5.6,7.5l-5.4,4l-5.6-7.5l-5.9,4.4l5.6,7.5l-5.4,4l69.3,93.2
					l73.3-54.5l-69.3-93.2L934.5,69.2z M988.3,153l-51.5,38.3l-2.8-3.7l51.5-38.3L988.3,153z M977.9,139.1l-51.5,38.3l-2.8-3.7
					l51.5-38.3L977.9,139.1z M967.6,125.2l-51.5,38.3l-2.8-3.7l51.5-38.3L967.6,125.2z M957.2,111.3l-51.5,38.3l-2.8-3.7l51.5-38.3
					L957.2,111.3z M946.9,97.3l-51.5,38.3l-2.8-3.7l51.5-38.3L946.9,97.3z"/>
			</g>
		</g>
		<g>
			<path class="st5" d="M760.6,245.1l8.4,20.1c0.2,0.5,0.2,1.1,0,1.7c-0.2,0.6-0.6,1-1.2,1.2l-9.1,3.8c-0.6,0.2-1.1,0.2-1.7,0
				c-0.6-0.2-1-0.6-1.2-1.2l-8.4-20.1c-0.2-0.5-0.2-1.1,0-1.7c0.2-0.6,0.6-1,1.2-1.2l9.1-3.8c0.5-0.2,1.1-0.2,1.7,0
				C760,244.2,760.4,244.5,760.6,245.1z M762.3,263.3c-0.2-0.5-0.6-0.9-1.2-1.2c-0.6-0.2-1.1-0.2-1.7,0c-0.6,0.2-1,0.6-1.2,1.2
				c-0.2,0.6-0.2,1.1,0,1.7c0.2,0.6,0.6,1,1.2,1.2c0.6,0.2,1.1,0.2,1.7,0c0.5-0.2,0.9-0.6,1.2-1.2
				C762.5,264.4,762.5,263.8,762.3,263.3z M798.1,229.5c0.8,1.8,0.8,3.6,0.2,5.4c0.7,0.8,1.2,1.5,1.5,2.2c0.7,1.6,0.9,3.2,0.4,4.9
				c0.8,1,1.4,2.2,1.5,3.7c0.2,1.3,0,2.5-0.5,3.7c1.2,2.3,1.4,4.4,0.8,6.3c-0.7,2.2-2.4,3.8-5.2,5l-1.1,0.5l-2.4,1l-0.5,0.2
				c-1.4,0.6-3,1.1-4.8,1.4c-1.8,0.4-3.2,0.6-4.2,0.7c-1,0.1-2.5,0.2-4.3,0.4c-3,0.2-4.8,0.4-5.6,0.7c-0.6,0.2-1.1,0.2-1.7,0
				c-0.6-0.2-1-0.6-1.2-1.1l-8.4-20.1c-0.2-0.5-0.2-1.1,0-1.6c0.2-0.6,0.6-1,1.1-1.2c0.5-0.3,1-1.2,1.6-2.9c0.6-1.7,1.1-3.4,1.6-5.1
				c0.7-2.4,1.2-4.1,1.6-5.1c0.2-0.5,0.3-1.2,0.4-1.9c0-0.7,0-1.3-0.1-1.8c-0.1-0.4-0.2-1.1-0.4-2.1c-0.2-0.9-0.3-1.6-0.4-2.1
				c-0.1-0.5-0.1-1.1-0.1-1.9c0-0.8,0.2-1.4,0.4-2c0.2-0.6,0.6-1,1.2-1.2c1-0.4,1.9-0.7,2.7-0.8c0.9-0.1,1.6-0.1,2.2,0
				c0.6,0.1,1.2,0.4,1.8,0.7c0.6,0.4,1,0.7,1.3,1.1c0.3,0.4,0.7,0.8,1,1.4c0.4,0.6,0.6,1,0.7,1.3c0.1,0.3,0.3,0.7,0.5,1.2
				c0.3,0.8,0.6,1.6,0.7,2.5c0.1,0.9,0.2,1.6,0.2,2.1c0,0.5-0.1,1.3-0.1,2.1c0,0.2,0,0.4-0.1,0.7c0,0.3-0.1,0.6-0.1,0.8
				c0,0.2,0,0.5,0.1,0.9l8.8-3.7c1.6-0.7,3.3-0.7,5,0C796.2,226.7,797.4,227.8,798.1,229.5z"/>
		</g>
		<g>
			<path class="st10" d="M606.6,378.9c0,0,5.3,38.1,41.7,41.7c-36.4,3.6-41.7,41.7-41.7,41.7s-5.3-38.1-41.7-41.7
				C601.3,417,606.6,378.9,606.6,378.9z"/>
			<path class="st10" d="M570.3,437c0,0,2.9,21.1,23.1,23.1c-20.2,2-23.1,23.1-23.1,23.1s-2.9-21.1-23.1-23.1
				C567.4,458.2,570.3,437,570.3,437z"/>
		</g>
		<g>
			<g>
				<path class="st11" d="M477.2,867.1v11.8c4.8,0,8.7,3.9,8.7,8.7c0,4.8-3.9,8.7-8.7,8.7v11.8l44.8,15.8v-36.3v-36.3L477.2,867.1z"
					/>
				<g>
					<g>
						<path class="st12" d="M1029.8,707.8v359.5c0,9.6-7.8,17.3-17.3,17.3H537c-9.6,0-17.3-7.7-17.3-17.3V707.8
							c0-9.6,7.8-17.3,17.3-17.3h475.5C1022,690.5,1029.8,698.3,1029.8,707.8z"/>
					</g>
					<g>
						<g>
							<g>
								<rect x="538.5" y="709.6" class="st13" width="472.1" height="356"/>
							</g>
						</g>
					</g>
					<g>
						<path class="st14" d="M454.3,887.6c0,12.6,10.2,22.9,22.9,22.9c12.6,0,22.9-10.2,22.9-22.9c0-12.6-10.2-22.9-22.9-22.9
							C464.6,864.7,454.3,875,454.3,887.6z M485.9,887.6c0,4.8-3.9,8.7-8.7,8.7c-4.8,0-8.7-3.9-8.7-8.7c0-4.8,3.9-8.7,8.7-8.7
							C482,878.8,485.9,882.7,485.9,887.6z"/>
						<g>
							<rect x="511.5" y="810.9" class="st14" width="49.5" height="153.4"/>
						</g>
					</g>
				</g>
			</g>
			<g>
				
					<rect x="624.7" y="934.7" transform="matrix(6.123234e-17 -1 1 6.123234e-17 -310.0455 1646.6276)" class="st15" width="87.2" height="87.2"/>
				
					<rect x="739.3" y="934.7" transform="matrix(6.123234e-17 -1 1 6.123234e-17 -195.4166 1761.2565)" class="st15" width="87.2" height="87.2"/>
				
					<rect x="853.9" y="934.7" transform="matrix(6.123234e-17 -1 1 6.123234e-17 -80.7877 1875.8854)" class="st15" width="87.2" height="87.2"/>
				<g>
					
						<rect x="560" y="830.7" transform="matrix(6.123234e-17 -1 1 6.123234e-17 -206.0485 1474.0964)" class="st15" width="148.1" height="18.7"/>
					
						<rect x="591.6" y="830.7" transform="matrix(6.123234e-17 -1 1 6.123234e-17 -174.4188 1505.7261)" class="st15" width="148.1" height="18.7"/>
				</g>
				<g>
					
						<rect x="674.6" y="830.7" transform="matrix(6.123234e-17 -1 1 6.123234e-17 -91.4196 1588.7253)" class="st15" width="148.1" height="18.7"/>
					
						<rect x="706.2" y="830.7" transform="matrix(6.123234e-17 -1 1 6.123234e-17 -59.7887 1620.3562)" class="st15" width="148.1" height="18.7"/>
				</g>
				<g>
					
						<rect x="789.5" y="830.7" transform="matrix(6.123234e-17 -1 1 6.123234e-17 23.455 1703.6)" class="st15" width="148.1" height="18.7"/>
					
						<rect x="821.1" y="830.7" transform="matrix(6.123234e-17 -1 1 6.123234e-17 55.0836 1735.2286)" class="st15" width="148.1" height="18.7"/>
				</g>
			</g>
		</g>
		<g>
			<g>
				<polygon class="st5" points="1652.1,216.9 1763.3,170.6 1641.5,208.1 1650.9,211.6 				"/>
				<polygon class="st7" points="1650.9,211.6 1763.3,170.6 1652.1,216.9 				"/>
				<polygon class="st5" points="1652.1,216.9 1763.3,170.6 1661.1,238.4 				"/>
				<polygon class="st7" points="1652.1,216.9 1763.3,170.6 1666.9,234.6 				"/>
				<polygon class="st5" points="1652.1,216.9 1763.3,170.6 1686.7,240.4 				"/>
			</g>
			<g>
				<path class="st5" d="M1650.9,251.1c-11.2,4.9-21.5,11.5-33.3,15c-7.1,2.1-13.7,1.9-20.9,0.5c-13.2-2.6-29.4-8.4-37.9-19.5
					c-7.4-9.7-2.8-24.5,9.3-27.9c9.4-2.7,16,7.2,16.9,15.3c1.7,16.9-18.6,20.8-31.1,17.7c-20.1-4.9-22.5-32.1-20.9-48.9
					c0.3-2.9,4.8-2.9,4.6,0c-1.5,15.6,0,40.1,18.6,44.7c11.4,2.8,28-2.2,23.7-16.7c-1.1-3.7-4.1-7.6-8.1-8c-5.9-0.6-10.7,6.1-12,11
					c-1.6,6.4,4.1,12.1,8.7,15.6c6.2,4.6,13.6,7.7,21,10c6.6,2.1,14.1,4,21.1,3c13.7-1.9,25.6-10.4,38.1-15.8
					C1651.3,246,1653.6,249.9,1650.9,251.1L1650.9,251.1z"/>
			</g>
		</g>
		<g>
			<path class="st16" d="M1208.9,274.3c-11.6,0-21,9.4-21,21v53.1c0,11.6,9.4,21,21,21c11.6,0,21-9.4,21-21v-53.1
				C1229.9,283.7,1220.5,274.3,1208.9,274.3z M1208.9,303.6c-5.5,0-9.9-4.4-9.9-9.9c0-5.5,4.4-9.9,9.9-9.9c5.5,0,9.9,4.4,9.9,9.9
				C1218.8,299.2,1214.3,303.6,1208.9,303.6z"/>
			<rect x="721.2" y="332.6" class="st5" width="975.5" height="567.3"/>
			<rect x="704.6" y="311.2" class="st17" width="1008.6" height="21.4"/>
			<rect x="704.6" y="902.1" class="st17" width="1008.6" height="21.4"/>
			<rect x="1193.4" y="918.6" class="st17" width="31" height="145.8"/>
			<path class="st17" d="M1411.1,1070.8h-401.9c0-23,200.9-26.7,200.9-26.7S1411.1,1048.6,1411.1,1070.8z"/>
			<g>
				<g>
					<rect x="810.1" y="760.1" class="st18" width="113" height="92.9"/>
					<rect x="947.9" y="621.7" class="st18" width="113" height="231.3"/>
					<rect x="1085.6" y="655.6" class="st18" width="113" height="197.4"/>
					<rect x="1223.3" y="536.2" class="st18" width="113" height="316.8"/>
					<rect x="1361.1" y="492.2" class="st18" width="113" height="360.8"/>
					<rect x="1498.8" y="413.6" class="st18" width="113" height="439.4"/>
				</g>
				<g>
					<path class="st19" d="M864.3,742.5c-0.4,0-0.8-0.1-1.1-0.3c-0.8-0.5-0.9-1.4-0.3-2.1l137.7-142.4c0.5-0.5,1.2-0.7,1.9-0.5
						l139,34.5l137-117.1c0.2-0.2,0.4-0.3,0.6-0.4l137.6-45.2l137.6-74.8c0.5-0.3,1.1-0.3,1.6-0.2l-0.4,3.1l-137,74.5
						c-0.1,0.1-0.2,0.1-0.3,0.1l-137.4,45.1l-137.5,117.5c-0.5,0.4-1.2,0.6-1.8,0.4l-138.9-34.4l-137,141.6
						C865.4,742.3,864.9,742.5,864.3,742.5z"/>
				</g>
				<path class="st19" d="M877.5,741c0,4.9-4.9,8.9-10.9,8.9c-6,0-10.9-4-10.9-8.9c0-4.9,4.9-8.9,10.9-8.9
					C872.6,732.1,877.5,736.1,877.5,741z"/>
				<path class="st19" d="M1015.2,596.5c0,4.9-4.9,8.9-10.9,8.9c-6,0-10.9-4-10.9-8.9c0-4.9,4.9-8.9,10.9-8.9
					C1010.4,587.6,1015.2,591.6,1015.2,596.5z"/>
				<path class="st19" d="M1153,633.3c0,4.9-4.9,8.9-10.9,8.9c-6,0-10.9-4-10.9-8.9c0-4.9,4.9-8.9,10.9-8.9
					C1148.1,624.4,1153,628.4,1153,633.3z"/>
				<path class="st19" d="M1290.7,515.6c0,4.9-4.9,8.9-10.9,8.9c-6,0-10.9-4-10.9-8.9c0-4.9,4.9-8.9,10.9-8.9
					C1285.8,506.6,1290.7,510.6,1290.7,515.6z"/>
				<path class="st19" d="M1428.4,467.2c0,4.9-4.9,8.9-10.9,8.9c-6,0-10.9-4-10.9-8.9c0-4.9,4.9-8.9,10.9-8.9
					C1423.6,458.3,1428.4,462.3,1428.4,467.2z"/>
				<path class="st19" d="M1566.2,395.5c0,4.9-4.9,8.9-10.9,8.9c-6,0-10.9-4-10.9-8.9c0-4.9,4.9-8.9,10.9-8.9
					C1561.3,386.5,1566.2,390.5,1566.2,395.5z"/>
			</g>
		</g>
		<g>
			<path class="st20" d="M935.4,346.5l-17.9,107.1l-85.1-67.5C857.9,354.1,897.8,340.2,935.4,346.5z"/>
			<path class="st21" d="M985,368.5c25.9,20.5,39.9,50.5,41,81.2c0.9,24.9-6.7,50.3-23.4,71.4l-85.1-67.5l17.9-107.1
				C953,349.4,970.1,356.7,985,368.5z"/>
			<path class="st22" d="M917.5,453.6l85.1,67.5c-25.4,32.1-65.3,45.9-103,39.6L917.5,453.6z"/>
			<path class="st23" d="M917.5,453.6l-17.9,107.1c-17.6-2.9-34.6-10.2-49.6-22c-25.9-20.5-39.9-50.5-41-81.2L917.5,453.6z"/>
			<path class="st24" d="M796.3,373.1l85.1,67.5l-108.5,3.9C771.9,419.5,779.6,394.2,796.3,373.1z"/>
		</g>
		<polygon class="st25" points="1865.6,415 1616.6,503.9 1690.4,562.3 1429.4,844.9 1222.7,612.4 756.7,1084.2 895.6,1084.2 
			1202.9,736.1 1426.2,959.9 1749,605.9 1814.8,656.9 		"/>
		<g>
			<polygon class="st26" points="787.8,823.5 794.8,870.1 808.7,866.1 792.5,822.6 			"/>
			<path class="st27" d="M782.5,824.9c-3.7-3.9,9.2-11.7,13.2-8c3.9,3.7,6.1,10.9,2.4,14.8c-3.7,3.9-7.9,3.7-12.9,1.3
				C778.7,830,786.4,829.1,782.5,824.9z"/>
			<g>
				<g>
					<path class="st5" d="M763.3,804.4l-4.6,14.8c-0.1,0.4,0.1,0.9,0.5,1l32.2,10c0.4,0.1,0.9-0.1,1-0.5l4.6-14.8
						c0.1-0.4-0.1-0.9-0.5-1l-32.2-10C763.9,803.7,763.5,804,763.3,804.4z"/>
					
						<rect x="768.7" y="802" transform="matrix(0.2957 -0.9553 0.9553 0.2957 -232.9093 1317.7174)" class="st28" width="17.1" height="29.7"/>
					<path class="st5" d="M793.4,820.7c0.6,0.2,0.9,0.8,0.7,1.4c-0.2,0.6-0.8,0.9-1.4,0.7c-0.6-0.2-0.9-0.8-0.7-1.4
						C792.2,820.8,792.8,820.5,793.4,820.7z"/>
					<path class="st28" d="M791.8,821.3c-0.2,0.7,0.2,1.4,0.9,1.6c0.7,0.2,1.4-0.2,1.6-0.9c0.2-0.7-0.2-1.4-0.9-1.6
						C792.8,820.2,792,820.6,791.8,821.3z M794.1,822c-0.2,0.6-0.8,0.9-1.4,0.7c-0.6-0.2-0.9-0.8-0.7-1.4c0.2-0.6,0.8-0.9,1.4-0.7
						C794,820.8,794.3,821.5,794.1,822z"/>
				</g>
			</g>
			<g>
				<rect x="717.8" y="920.9" class="st26" width="53.2" height="27.1"/>
				<path class="st2" d="M717.8,942c0,0,18.9,2.7,30.5-6.8c9.9,8.8,22.6-0.7,22.6-0.7v-11h-53.1L717.8,942z"/>
				<polygon class="st5" points="742,900.2 741.5,894.8 717.8,843.7 733.4,838.8 757,839.4 				"/>
				<path class="st29" d="M750.5,840.5c0,3.5-2.9,6.4-6.4,6.4l0,0c-3.5,0-6.4-2.9-6.4-6.4v-7.6c0-3.5,2.9-6.4,6.4-6.4l0,0
					c3.5,0,6.4,2.9,6.4,6.4V840.5z"/>
				<path class="st30" d="M793.1,1086.6c-10.7,0-31.8,0-31.8,0v-17.4l8.4,0.5C777.1,1079.8,790.6,1065.7,793.1,1086.6z"/>
				<polygon class="st26" points="757,999.3 769.8,999.3 770.9,948 748.3,948 				"/>
				<polygon class="st26" points="761.3,1069.7 769.8,1069.7 769.8,999.3 757,999.3 				"/>
				<rect x="761.3" y="1084.2" class="st30" width="31.8" height="2.4"/>
				<path class="st30" d="M695.6,1086.6c10.7,0,31.8,0,31.8,0v-17.4l-8.4,0.5C711.6,1079.8,698.1,1065.7,695.6,1086.6z"/>
				<polygon class="st26" points="731.7,999.3 719,999.3 717.8,948 740.4,948 				"/>
				<polygon class="st26" points="727.4,1069.7 719,1069.7 719,999.3 731.7,999.3 				"/>
				<rect x="695.6" y="1084.2" class="st30" width="31.8" height="2.4"/>
				<path class="st26" d="M688,891.2c4.2,2.8,9.1,1.5,15.4-6.2c8.9-10.8,26-20.4,26-20.4c12-10.8,1.3-22.3-6.5-24.5
					c-4.8-1.3-12.4,0-15.7,5.2l-20.6,31.5C683.1,882,683.8,888.4,688,891.2L688,891.2z"/>
				<polygon class="st26" points="714.5,916.7 700.4,884.4 686.3,888.8 707,922.6 				"/>
				<polygon class="st31" points="739.9,890.5 743.8,893.2 746.9,889.5 746,845 741.6,845 				"/>
				<path class="st26" d="M754.8,839.3l12.1,0.2c0,0,2.7,78.8,5.4,88.8c-4.8,5.3-18.3,18.4-26.1-2c-8.6-22.7-3-37.5-3-37.5
					L754.8,839.3z"/>
				<polygon class="st32" points="754.8,839.3 764.8,854.9 755.3,863.7 763.6,867 742,891.3 				"/>
				<path class="st26" d="M733.4,838.8l-15.6,0.7c0,0-0.3,78.8-3.2,88.8c4.9,5.3,27.9,17.1,31.1-4.6c3.4-22.7-2.3-34.1-2.3-34.1
					L733.4,838.8z"/>
				<polygon class="st32" points="733.4,838.8 723.4,854.9 733.2,863.7 724.6,867 743.4,889.7 				"/>
				<path class="st29" d="M725.9,923.3c5.5,2.6-4.8,15.9-10.4,13.7c-5.6-2.3-10.8-8.8-8.5-14.4c2.3-5.6,6.7-7.1,12.8-6.6
					C727.7,916.6,720.1,920.6,725.9,923.3z"/>
				<rect x="741.6" y="840.7" class="st31" width="4.4" height="4.4"/>
				<path class="st2" d="M751.9,841.2L746,849l-2.2-2.1l-2.4,3.4l-4.4-9.1l3.8,5.7l1.2-1.9l3.9,0.4
					C747,846.3,751.9,841.2,751.9,841.2z"/>
				<polygon class="st5" points="746,846.9 753.4,839.7 752.3,836.2 744.4,840.7 				"/>
				<polygon class="st5" points="741.5,846.9 735.2,839 737.3,835.5 743.8,840.7 				"/>
				<path class="st29" d="M774.9,814.3c0,12.8-10.4,23.3-23.3,23.3c-12.8,0-23.3-10.4-23.3-23.3c0-12.8,10.4-23.8,23.3-23.3
					C778.6,792.2,760.5,817,774.9,814.3z"/>
				<path class="st5" d="M767.6,823.6h-16C750.9,830.7,761.5,838.3,767.6,823.6z"/>
				<path class="st33" d="M771.8,785.6c-4,2-4.7,3.4-13,1.6c-11.7-2.6-28.1-2.4-27.9-0.9c-8.6,3.9-14.6,12.5-14.6,22.5
					c0,13.2,10.3,23.9,23.3,24.6c-0.4-1.7-0.7-3.5-0.7-5.3c0-1.1,0.1-2.2,0.3-3.3c-0.9,0.5-2,0.8-3.1,0.8c-3.7,0-6.7-3-6.7-6.7
					c0-3.7,3-6.7,6.7-6.7c2.9,0,5.3,1.8,6.3,4.3c1.9-6.1,0.6-10.5,0.6-10.5c6.9,0.8,12.8,2,22.4-0.9
					C774,802.1,778.1,794.9,771.8,785.6z"/>
			</g>
			<path class="st26" d="M808.5,868.9c1.1-4.4-1.5-8.1-9.8-11.2c-11.8-4.4-25-15.9-25-15.9c-12.7-6.9-19.3,5.5-18.8,12.8
				c0.3,4.5,3.7,10.5,9.1,11.8l32.8,8.1C802.2,875.8,807.4,873.3,808.5,868.9L808.5,868.9z"/>
		</g>
		<g>
			<g>
				<path class="st5" d="M862.8,971.6c0,74.3,60.2,134.5,134.5,134.5c74.3,0,134.5-60.2,134.5-134.5c0-74.3-60.2-134.5-134.5-134.5
					C923,837.1,862.8,897.3,862.8,971.6z"/>
				<path class="st34" d="M889.5,971.6c0,59.5,48.3,107.8,107.8,107.8c59.5,0,107.8-48.3,107.8-107.8c0-59.5-48.3-107.8-107.8-107.8
					C937.7,863.8,889.5,912.1,889.5,971.6z"/>
				<path class="st5" d="M916.2,971.6c0,44.8,36.3,81.1,81.1,81.1c44.8,0,81.1-36.3,81.1-81.1c0-44.8-36.3-81.1-81.1-81.1
					C952.5,890.5,916.2,926.8,916.2,971.6z"/>
				<path class="st34" d="M942.9,971.6c0,30,24.3,54.4,54.4,54.4c30,0,54.4-24.4,54.4-54.4c0-30-24.3-54.4-54.4-54.4
					C967.2,917.2,942.9,941.6,942.9,971.6z"/>
				<path class="st5" d="M969.6,971.6c0,15.3,12.4,27.7,27.7,27.7c15.3,0,27.7-12.4,27.7-27.7c0-15.3-12.4-27.7-27.7-27.7
					C982,943.9,969.6,956.3,969.6,971.6z"/>
			</g>
			<g>
				
					<rect x="911.3" y="793.3" transform="matrix(0.7071 -0.7071 0.7071 0.7071 -360.804 907.3893)" class="st35" width="7.3" height="191.9"/>
				<polygon class="st35" points="982,938.4 997.3,971.6 964.1,956.3 977.4,951.7 				"/>
				<polygon class="st35" points="837.9,794.3 861.1,817.5 861.1,835.4 843.2,835.4 820,812.2 837.9,812.2 				"/>
			</g>
			<path class="st36" d="M899.6,1064.1l73.9-73.9l-9.4-3.3l33.2-15.3l-15.3,33.2l-3.3-9.4l-73.9,73.9
				C903,1067.5,901.3,1065.8,899.6,1064.1z"/>
		</g>
		<g>
			<g>
				<g>
					<path class="st37" d="M1411.9,1075.7c-24.5,0-44.3-19.9-44.3-44.3V861.9c0-24.5,19.9-44.3,44.3-44.3h444.4
						c24.5,0,44.3,19.9,44.3,44.3v169.4c0,24.5-19.9,44.3-44.3,44.3H1411.9z"/>
					<rect x="1419" y="826" class="st13" width="437.3" height="241.3"/>
					<path class="st13" d="M1391.5,974.5c-6.9,0-12.4-5.6-12.4-12.4v-31c0-6.9,5.6-12.4,12.4-12.4l0,0c6.9,0,12.4,5.6,12.4,12.4v31
						C1403.9,969,1398.3,974.5,1391.5,974.5L1391.5,974.5z"/>
					<path class="st13" d="M1879.3,965.7c-1,0-1.8-0.8-1.8-1.8v-33.7c0-1,0.8-1.8,1.8-1.8l0,0c1,0,1.8,0.8,1.8,1.8v33.7
						C1881.1,964.9,1880.3,965.7,1879.3,965.7L1879.3,965.7z"/>
					<path class="st13" d="M1879.3,995.8c-1,0-1.8-0.3-1.8-0.7v-13.6c0-0.4,0.8-0.7,1.8-0.7l0,0c1,0,1.8,0.3,1.8,0.7v13.6
						C1881.1,995.5,1880.3,995.8,1879.3,995.8L1879.3,995.8z"/>
					<path class="st13" d="M1880.6,879.6c-2.4,0-4.4-2-4.4-4.4c0-2.4,2-4.4,4.4-4.4c2.5,0,4.4,2,4.4,4.4
						C1885.1,877.7,1883.1,879.6,1880.6,879.6z"/>
					<path class="st13" d="M1880.6,900.9c-2.4,0-4.4-2-4.4-4.4c0-2.5,2-4.4,4.4-4.4c2.5,0,4.4,2,4.4,4.4
						C1885.1,898.9,1883.1,900.9,1880.6,900.9z"/>
				</g>
			</g>
			<polygon class="st38" points="1419,937.7 1489.9,916 1537.9,939.2 1625.6,956.9 1667.8,924.4 1746.2,928.2 1772.4,913.4 
				1829,914.8 1856.3,936.6 1856.3,902.5 1856.3,1060.3 1419,1060.3 			"/>
			<polygon class="st39" points="1419,968.6 1452.9,917.1 1537.9,965.5 1580.6,949.9 1645.2,977 1703.8,941.8 1756.3,956.5 
				1812.8,901.7 1822.9,949.9 1856.3,909.1 1856.3,1060.3 1419,1060.3 			"/>
			<polygon class="st18" points="1419,978.2 1495.2,937.7 1545,1002.6 1596.2,986.4 1611.9,1002.6 1691.6,934.9 1702.8,980 
				1761.3,1002.6 1814.9,981.6 1856.3,969.5 1856.3,1067.2 1419,1067.2 			"/>
			<path class="st5" d="M1494.1,1043.6c0,1-0.8,1.9-1.9,1.9h-56.6c-1,0-1.9-0.8-1.9-1.9l0,0c0-1,0.8-1.9,1.9-1.9h56.6
				C1493.3,1041.7,1494.1,1042.5,1494.1,1043.6L1494.1,1043.6z"/>
			<path class="st5" d="M1581.3,1043.6c0,1-0.8,1.9-1.9,1.9h-56.6c-1,0-1.9-0.8-1.9-1.9l0,0c0-1,0.8-1.9,1.9-1.9h56.6
				C1580.4,1041.7,1581.3,1042.5,1581.3,1043.6L1581.3,1043.6z"/>
			<path class="st5" d="M1668.4,1043.6c0,1-0.8,1.9-1.9,1.9h-56.6c-1,0-1.9-0.8-1.9-1.9l0,0c0-1,0.8-1.9,1.9-1.9h56.6
				C1667.6,1041.7,1668.4,1042.5,1668.4,1043.6L1668.4,1043.6z"/>
			<path class="st5" d="M1755.6,1043.6c0,1-0.8,1.9-1.9,1.9H1697c-1,0-1.9-0.8-1.9-1.9l0,0c0-1,0.8-1.9,1.9-1.9h56.6
				C1754.7,1041.7,1755.6,1042.5,1755.6,1043.6L1755.6,1043.6z"/>
			<path class="st5" d="M1842.7,1043.6c0,1-0.8,1.9-1.9,1.9h-56.6c-1,0-1.9-0.8-1.9-1.9l0,0c0-1,0.8-1.9,1.9-1.9h56.6
				C1841.9,1041.7,1842.7,1042.5,1842.7,1043.6L1842.7,1043.6z"/>
		</g>
		<g>
			<polygon class="st40" points="1770.1,794.4 1813.8,794.4 1815.6,723.2 1770.3,723.2 			"/>
			<path class="st29" d="M1787.6,724c0,2.9,2.4,5.3,5.3,5.3l0,0c2.9,0,5.3-2.4,5.3-5.3v-6.3c0-2.9-2.4-5.3-5.3-5.3l0,0
				c-2.9,0-5.3,2.4-5.3,5.3V724z"/>
			<path class="st16" d="M1747,905.2c11-1.4,32.7-4,32.7-4l-2.2-17.9l-8.6,1.5C1762.6,896.2,1746.9,883.4,1747,905.2z"/>
			<path class="st29" d="M1767.6,702.4c0,10.6,8.6,19.1,19.1,19.1c10.5,0,19.1-8.6,19.1-19.1c0-10.5-8.6-19.5-19.1-19.1
				C1764.5,684.3,1779.4,704.6,1767.6,702.4z"/>
			<path class="st41" d="M1768.1,680.4c0,0,35.5-2,35.3-0.8c7.1,3.2,12,10.2,12,18.5c0,10.8-8.5,19.6-19.1,20.2
				c0.3-1.4,0.5-2.9,0.5-4.4c0-0.9-0.1-1.8-0.2-2.7c0.8,0.4,1.6,0.6,2.6,0.6c3,0,5.5-2.5,5.5-5.5c0-3-2.5-5.5-5.5-5.5
				c-2.4,0-4.4,1.5-5.1,3.6c-0.6-1.8-3.6-10.9-5.6-12c-3.4-2-13.7,2.8-15.3,3.6C1770.8,689.5,1768.1,680.4,1768.1,680.4z"/>
			<path class="st40" d="M1832.1,774.1c-3.9-2.4-6.8-3.8-10.2-11.2c-4.8-10.5-16.2-21.7-16.2-21.7c-7.2-11.2,3.8-18,10.4-18
				c4.1,0,9.8,2.7,11.4,7.5l9.6,29.4C1842.1,771.7,1832.1,774.1,1832.1,774.1z"/>
			<path class="st40" d="M1756,770.5c-3.4-2.4-3.9-6.5,0-13.6c5.5-10.1,7.5-26,7.5-26c4.6-12.5,16.6-7.8,20.6-2.5
				c2.5,3.3,3.8,9.4,0.9,13.6l-17.7,25.4C1764.5,771.5,1759.4,772.9,1756,770.5L1756,770.5z"/>
			<path class="st40" d="M1726.3,727.7l41.8,32.3c0,0-4.7,10.4-9.3,11.6c-4.7,1.3-35.2-40.6-35.2-40.6L1726.3,727.7z"/>
			<path class="st29" d="M1723.6,716.3c-1.2-4.8-13.6,1.5-12.6,6.3c1,4.9,5.5,10,10.3,9c4.9-1,6.7-4.3,7.3-9.3
				C1729.3,715.8,1724.9,721.3,1723.6,716.3z"/>
			<rect x="1759.9" y="794.4" class="st42" width="55.1" height="22.4"/>
			<polygon class="st42" points="1761.3,809 1762.4,822.2 1815.4,819.1 1813.5,795.7 			"/>
			<polygon class="st42" points="1768.6,884.9 1777.3,883.8 1768.3,811.5 1755.2,813.1 			"/>
			<path class="st16" d="M1693.6,881.8c11.1,1.2,32.8,3.5,32.8,3.5l1.9-17.9l-8.8-0.4C1710.8,876.6,1698.4,860.6,1693.6,881.8z"/>
			<polygon class="st42" points="1729.4,808 1727.1,795.1 1782.5,794.3 1784.4,819 			"/>
			<polygon class="st42" points="1728.2,867.8 1719.5,866.9 1727.2,794.4 1740.3,795.8 			"/>
			<path class="st5" d="M1773.5,710.1h13.1C1787.3,715.9,1778.6,722.2,1773.5,710.1z"/>
			<path class="st29" d="M1780.6,734.7c-2.8-4.1-12.3,5.9-9.8,10.1c2.5,4.3,8.5,7.7,12.7,5.1c4.3-2.5,4.9-6.3,3.8-11.2
				C1785.8,732.4,1783.5,739.1,1780.6,734.7z"/>
			<polygon class="st7" points="1810.2,741.1 1810.5,749.7 1787.8,743.3 1814.5,767.2 1814.9,752.4 1814.9,750.7 			"/>
			<polygon class="st40" points="1787,743.3 1837.1,760.1 1832.1,774.1 1785.5,747.4 			"/>
			<g>
				<path class="st43" d="M1726.9,719.7c0.6,1.1,0.1,2.5-1.1,3.1l-7.9,3.8c-1.1,0.6-2.5,0.1-3.1-1.1l-10.1-20.8
					c-0.6-1.1-0.1-2.5,1.1-3.1l7.9-3.8c1.1-0.6,2.5-0.1,3.1,1.1L1726.9,719.7z"/>
				
					<rect x="1709.5" y="700.7" transform="matrix(0.8996 -0.4367 0.4367 0.8996 -138.7312 820.7773)" class="st44" width="12.6" height="22.7"/>
				<path class="st45" d="M1722.6,723c0.2,0.3,0,0.7-0.3,0.9l-1.5,0.7c-0.3,0.2-0.7,0-0.9-0.3l0,0c-0.2-0.3,0-0.7,0.3-0.9l1.5-0.7
					C1722.1,722.5,1722.5,722.7,1722.6,723L1722.6,723z"/>
				<path class="st45" d="M1711.1,700.4c0,0,0,0.1,0,0.1l-1.6,0.8c0,0-0.1,0-0.1,0l0,0c0,0,0-0.1,0-0.1l1.6-0.8
					C1711.1,700.3,1711.1,700.3,1711.1,700.4L1711.1,700.4z"/>
				<path class="st45" d="M1712.5,699.7c0,0,0,0.1,0,0.1l-0.6,0.3c0,0-0.1,0-0.1-0.1l0,0c0,0,0-0.1,0-0.1L1712.5,699.7
					C1712.5,699.6,1712.5,699.6,1712.5,699.7L1712.5,699.7z"/>
				<path class="st45" d="M1707.1,702.3c0.1,0.1,0,0.3-0.1,0.3c-0.1,0.1-0.3,0-0.3-0.1c-0.1-0.1,0-0.3,0.1-0.3
					C1706.9,702.1,1707,702.1,1707.1,702.3z"/>
				<path class="st45" d="M1708.1,701.8c0.1,0.1,0,0.3-0.1,0.3c-0.1,0.1-0.3,0-0.3-0.1c-0.1-0.1,0-0.3,0.1-0.3
					C1707.9,701.6,1708,701.7,1708.1,701.8z"/>
			</g>
		</g>
		<g>
			<polygon class="st46" points="1128.1,300.7 1132.9,315.6 1112.9,315.6 1104.3,307.3 1099.6,301.8 1103.3,294.6 1114.6,293.7 			
				"/>
			<g>
				<g>
					<g>
						<path class="st46" d="M1052.2,259.7c4-1.9,10.2-7.2,14.3-13.9c5.8-9.5,18-18.9,18-18.9c6.4-7.8-1.5-17.7-7.9-18.4
							c-3.9-0.5-9.7,1.5-11.7,5.9l-15.1,33.7C1044.6,257.7,1052.2,259.7,1052.2,259.7z"/>
						<polygon class="st40" points="1100.2,281.1 1066.7,281.1 1073,246.6 1073.6,208.4 1103.4,208.4 1106.8,243.1 1101.8,250.8 
													"/>
						<g>
							<rect x="1066.7" y="281.1" class="st47" width="33.6" height="16.9"/>
							<path class="st47" d="M1118.9,317.1l10.2-5.1l-62.4-30.8c0,0-12.4,26.5,5.7,29.2C1090.6,313,1118.9,317.1,1118.9,317.1z"/>
							<polygon class="st47" points="1106,371.4 1113.3,373.3 1129.1,311.8 1118,309 							"/>
							<path class="st48" d="M1113.3,373.3c4.1,10.5,18.9,11.2,16.6,20c-5.5-1.4-14.2-3.7-20.4-5.3c0,0,0-0.1,0-0.1
								c0,0,0.5-6.4-0.8-6.8c-1.3-0.3-2.6,0.4-3,1.7l-0.9,3.9c-1.7-0.4-2.7-0.7-2.7-0.7l3.9-15.2L1113.3,373.3z"/>
							<polygon class="st47" points="1147,300.7 1148.9,289.3 1100.2,281.1 1096.2,300.6 							"/>
							<polygon class="st47" points="1139.6,352.3 1147.2,352.6 1148.9,289.3 1138,288.7 							"/>
							<path class="st48" d="M1147.4,353.3c6.3,9.4,20.9,6.9,20.5,16c-5.7-0.2-14.7-0.5-21.1-0.8c0,0,0-0.1,0-0.1
								c0,0-0.9-6.4-2.3-6.4c-1.3,0-2.5,1-2.5,2.3l-0.1,4c-1.7-0.1-2.8-0.1-2.8-0.1l0.6-15.7L1147.4,353.3z"/>
						</g>
						<polygon class="st46" points="1082.8,209.7 1083.4,315.6 1052.2,315.6 1073.6,208.4 1086.9,208.4 						"/>
						<path class="st49" d="M1067.4,253.3l-1.5-6.6l0,0l-2.6,13.1c1.2,1.6,2.5,3.2,3,3.8c1.1,1.3,9.5,6.9,9.5,6.9s8.7,2.1,9,2
							c0.2-0.1,0.6-1.9,0.8-2.7l0-0.4L1067.4,253.3z"/>
						<path class="st49" d="M1065.1,274.3c2.7-0.4,16.1,2.2,16.1,2.2c-0.1-6.2-16.7-13.8-16.7-13.8l-1.6-0.2l-10.6,53.1
							C1052.2,315.6,1062.4,274.7,1065.1,274.3z"/>
						<path class="st29" d="M1093.2,209.2c0,2.9-2.3,5.2-5.2,5.2l0,0c-2.9,0-5.2-2.3-5.2-5.2V203c0-2.9,2.3-5.2,5.2-5.2l0,0
							c2.9,0,5.2,2.3,5.2,5.2V209.2z"/>
						<path class="st46" d="M1119.9,242.6c-3.7-10.9-8.3-22-10.5-27.7c-2.3-5.7-4.3-8.9-12-5.1c-4.5,2.2-3.9,8.5-1.9,13.1l13.8,28.1
							c2,4.6,4.9,6.7,8.7,5C1118,256,1122.6,250.3,1119.9,242.6z"/>
						<polygon class="st46" points="1093.2,208.1 1100.2,281.1 1123.4,285 1100.8,208.1 						"/>
						<polygon class="st46" points="1082.7,270.6 1054.4,243.3 1052.2,259.7 1081.1,276.5 						"/>
						<path class="st29" d="M1092.4,280.7c1.8,4.4,2.9-2.6,2.4-7.3c-0.5-4.8-4.4-4.4-9.2-3.9c-4.8,0.5-4.5-0.7-5.5,4
							C1078.8,279.7,1090.5,276.1,1092.4,280.7z"/>
					</g>
					<g>
						<path class="st5" d="M1081.1,275.7v1.8c0,0.5,0.4,0.9,0.9,0.9h82.1c0.5,0,0.9-0.4,0.9-0.9v-1.4v-0.4v-39.3V234
							c0-0.5-0.4-0.9-0.9-0.9h-51.8h-5.3h-10.9c-0.5,0-1,0.4-1,0.9v13.6v28.2H1081.1z M1140,253.3c0,3.5-2.8,6.3-6.3,6.3
							c-2.4,0-4.5-1.4-5.6-3.4c0.1,0,0.2,0,0.2,0c3.5,0,6.3-2.8,6.3-6.3c0-1-0.3-2-0.7-2.9C1137.3,247.2,1140,249.9,1140,253.3z"/>
						<path class="st50" d="M1133.8,259.6c-2.4,0-4.5-1.4-5.6-3.4c0.1,0,0.2,0,0.2,0c3.5,0,6.3-2.8,6.3-6.3c0-1-0.3-2-0.7-2.9
							c3.4,0.1,6,2.9,6,6.3C1140,256.8,1137.2,259.6,1133.8,259.6z"/>
					</g>
				</g>
				<g>
					<path class="st29" d="M1110,184.6c2.1,10.2-4.4,20.1-14.5,22.2c-10.1,2.1-20.1-4.4-22.2-14.5c-2.1-10.1,4.3-20.5,14.5-22.2
						C1109.3,166.5,1099.1,189.1,1110,184.6z"/>
					<path class="st5" d="M1107.3,193.9l-7.9,1.7C1099.8,199.1,1105.8,201.8,1107.3,193.9z"/>
					<g>
						<path class="st51" d="M1110,170.6c0.4-0.4,0.5-0.8,0.5-1.3c-0.3-3.4-2.7-5.5-5.1-2.5c-1.2,1.6-1.7,1.7-3.9,0.7
							c-9.6-4.4-20.5-2.8-21.7-1.8c-8.1,0.3-16,10.9-16,19c0,10.6,8.3,19.3,18.8,19.9c-0.3-1.4-0.5-2.8-0.5-4.3
							c0-0.9,0.1-1.8,0.2-2.7c-0.8,0.4-1.6,0.6-2.5,0.6c-3,0-5.4-2.4-5.4-5.4c0-3,2.4-5.4,5.4-5.4c2.3,0,4.3,1.5,5.1,3.5
							c0.6-1.8,3.8-3.1,4.4-10.3c0.6-0.3,1.1-0.6,1.5-1.1c0.1,4.2,8.3,3.3,9.4,0c-0.8,2.2,1.7,2.5,3.3,2.2c2.1-0.1,3.5-1.2,4.2-3.3
							c1.7,3.4,5.3,0.7,6.1-2C1114.4,173.3,1112.1,171.9,1110,170.6z"/>
					</g>
					<path class="st51" d="M1066.4,184.7c-8.3,12.6-18.2,1.5-22.1,15.4c-5.4-6.6-7-16.1-4.4-22.9c2.6-6.5,7.2-9.7,14.3-10.4
						C1069.1,165.3,1070.4,178.6,1066.4,184.7z"/>
				</g>
			</g>
		</g>
		<g>
			<path class="st52" d="M1445.2,636.2c-4-3-4.4-8,0.6-16.3c7.1-11.8,10.3-30.8,10.3-30.8c6.1-14.7,20.3-8.6,24.8-2
				c2.8,4,4,11.5,0.4,16.3l-22.4,29.5C1455.3,637.7,1449.2,639.2,1445.2,636.2L1445.2,636.2z"/>
			<polygon class="st52" points="1420.7,605.8 1462,628.9 1445.2,636.2 1417.6,610 			"/>
			<path class="st29" d="M1406.6,594.3c-6,1.1-5.8,6.9,0.5,5.1c5-1.4-4.3,5.1,7.1,10.7c5.3,2.6,4.9,1.5,6.4-4.3
				C1422.8,598.2,1412.8,593.1,1406.6,594.3z"/>
			<rect x="1377.9" y="480" transform="matrix(0.8596 -0.5109 0.5109 0.8596 -88.8827 782.4698)" width="3.5" height="146"/>
			<g>
				<g>
					<path class="st53" d="M1478.7,604.8c3.8-3.5,8-7.4,5.4-13c-2.2-4.3-5.9-7.4-8-11.9c-1.8-3.6-1.6-6.6,0.7-10
						c1.2-1.9,2.7-3,3.1-5.1c0.5-2.6-0.7-3.6-1.8-5.8c-5.1-9,3.8-16.5,12.7-15.2l3.7-6.5c4.3,0,10.4,5.8,11.9,9.7
						c1.3,3.4,5.9,9.6,4.6,13c-1.2,3.8-2.8,4.5,1.2,7.6c2.3,2,5.1,2.3,3.9,6.3c-0.9,2.8-7,7.1-4.2,10.5c2.3,2.8,9.3,1.2,8.8,6.7
						c-0.1,2-2.6,2.8-2.3,5c0.3,2.4,3.4,2.8,5,4c4.3,3.2,4.5,8.9-0.3,11.5c-2.2,1.1-4,1.6-4.2,4.5c-0.1,2.4,2,3.6,2.7,5.8
						c1.1,4-4,7.1-7.3,8.1c-4,0.9-7.8,1.3-11.7,2.7c-4.6,1.5-10.1-1.1-14.3-3.1c-4.7-2.3-11.3-5.3-13.4-10.5
						C1472.9,613.6,1474.5,608.7,1478.7,604.8z"/>
				</g>
				<polygon class="st52" points="1454.8,668.7 1505.3,668.6 1497.8,628.2 1500.1,583.4 1460.3,582.8 1463.4,626.7 				"/>
				<path class="st29" d="M1474.1,584.4c0,3.4,2.7,6.1,6.1,6.1l0,0c3.4,0,6.1-2.7,6.1-6.1l0-7.3c0-3.4-2.7-6.1-6.1-6.1l0,0
					c-3.4,0-6.1,2.7-6.1,6.1L1474.1,584.4z"/>
				<polygon points="1454.8,686.4 1505.3,686.4 1505.3,668.6 1454.8,668.7 1454.8,677.5 				"/>
				<polygon class="st29" points="1496.9,735.1 1485,734.4 1483.6,686.4 1505.1,686.4 				"/>
				<polygon class="st29" points="1529.7,784.6 1523.2,789.2 1485,734.4 1494.9,727.4 				"/>
				<path class="st29" d="M1532.6,788.7l-3.1-4.4l-6.3,4.9c-0.1,5.7-3.4,10.1-6.3,13.9C1524.8,803.9,1529.1,797,1532.6,788.7z"/>
				<path class="st54" d="M1516.9,803.1c-3.1,4.2-5.6,7.8-2.7,11.9c4.9-3.4,12.7-8.8,18.2-12.7c0,0,0-0.1-0.1-0.1c0,0-2.8-6.2-1.7-7
					c1.2-0.8,2.8-0.5,3.6,0.6l2.4,3.5c1.5-1,2.4-1.7,2.4-1.7l-6.4-9.1C1529.1,797,1524.8,803.9,1516.9,803.1z"/>
				<polygon points="1468.4,735.1 1456.3,735.1 1455.2,686.4 1476.7,686.4 				"/>
				<polygon class="st29" points="1464.4,801.9 1456.4,802 1456.3,735.1 1468.4,735.1 				"/>
				<path class="st29" d="M1455.7,810.9c3-1.8,5.9-3.7,8.8-5.6l0-3.7l-8,0.4c-4.1,5.6-10.9,6.9-15.9,8.9
					C1444.3,814.3,1452.3,812.6,1455.7,810.9z"/>
				<path class="st54" d="M1455.7,810.9c-3.4,1.7-11.4,3.4-15.2-0.1c-3.6,1.4-6.2,3.2-6.2,7.2c6,0,15.5,0,22.2,0c0,0,0-0.1,0-0.1
					c0,0,1.2-6.7,2.6-6.7c1.4,0,2.6,1.1,2.6,2.6l-0.1,4.2c1.8,0,2.9,0,2.9,0l0-12.8C1461.6,807.2,1458.7,809.1,1455.7,810.9z"/>
				<path class="st52" d="M1520.4,637.9c-4.3,2-6.9,3.4-11.7-4.9c-6.8-11.6-14.8-28.2-18-34.6c-3.3-6.4-4.6-10.6,4.7-14.6
					c5.4-2.3,10.5,3.1,13,8.4l14.3,33.8C1525.2,631.4,1524.7,635.8,1520.4,637.9L1520.4,637.9z"/>
				<polygon class="st5" points="1480.3,635.7 1480.3,635.7 1469.1,582.8 1474.7,582.9 1479.8,586.3 1483.6,583.1 1489.8,583.3 				
					"/>
				<polygon class="st54" points="1489.8,583.3 1499.4,598.3 1490.2,606.8 1498.3,609.9 1480.3,635.7 				"/>
				<polygon class="st54" points="1469.1,582.8 1459.5,598.3 1468.9,606.8 1465.2,609.8 1480.3,635.7 				"/>
				<path class="st29" d="M1450.9,559.5c0,12.2,9.9,22.1,22.1,22.1c12.2,0,22.1-9.9,22.1-22.1c0-12.2-9.9-22.6-22.1-22.1
					C1447.3,538.5,1464.6,562,1450.9,559.5z"/>
				<path class="st5" d="M1456.3,569.5l9.5,0C1466.2,573.7,1460,578.2,1456.3,569.5z"/>
				<path class="st53" d="M1463.3,533.2c11.2-3.5,19-4.8,27.1-3.2c8.7,3,15.3,11,16.1,20.8c1.1,12.8-7.6,24.6-20.3,26.4
					c0.3-1.7-0.1-3.9-0.2-5.7c-0.1-1.1-0.3-2.2-0.5-3.2c1,0.4,2,0.6,3.1,0.5c3.6-0.3,6.3-3.5,6-7.1c-0.3-3.6-3.5-6.3-7.1-6
					c-2.8,0.2-5,2.2-5.8,4.7c-0.9-2.1-2.9-3.2-5.4-4.3c-4.3-2-9.6-4.3-11.2-12.5c-9.2,1.9-7.3,7.9-9.1,8.9
					C1452.7,545,1455.3,535.7,1463.3,533.2z"/>
				<path class="st29" d="M1474.1,587.5c0,0,0.4,9.1,6.3,9.1s5.8-9.1,5.8-9.1v-4.8h-12.2V587.5z"/>
				<polygon class="st54" points="1451.5,735.1 1489.9,734.7 1494.3,715.5 1497.5,731.7 1505.1,686.4 1505.3,668.6 1454.8,668.7 
									"/>
				<path class="st52" d="M1479.9,669l-8.5,7.3l-16.6-7.6c0,0,4.9-11.2,6.3-10.9c1.4,0.3,43,4.3,43,4.3l1.2,6.5l-13.6,6.7
					L1479.9,669z"/>
				<polygon class="st55" points="1499.2,635.7 1469.9,679.2 1504.6,664.8 				"/>
			</g>
			<path class="st52" d="M1476,671.9l44.7-50.4l3.7,7.4c1.9,3.9,0.9,8.6-2.4,11.4l-42.3,35L1476,671.9z"/>
			<path class="st29" d="M1464.4,675c-5.1,1.1,0.9,14.2,6,13.4c5.1-0.8,10.7-5.2,9.9-10.3c-0.8-5.1-4.2-7.2-9.3-8
				C1464.2,669,1469.8,673.8,1464.4,675z"/>
			<polygon class="st55" points="1460.5,630.9 1461.9,605.8 1463.3,627.2 			"/>
		</g>
	</g>
</g>
</svg>
