<?xml version="1.0" encoding="utf-8"?>
<!-- Generator: Adobe Illustrator 23.1.0, SVG Export Plug-In . SVG Version: 6.00 Build 0)  -->
<svg version="1.1" id="Layer_1" xmlns="http://www.w3.org/2000/svg" xmlns:xlink="http://www.w3.org/1999/xlink" x="0px" y="0px"
	 viewBox="0 0 570 85" style="enable-background:new 0 0 570 85;" xml:space="preserve">
<style type="text/css">
	.st0{fill:#FF0000;}
	.st1{fill:#0071BC;}
	.st2{fill:#FF1D25;}
	.st3{display:none;}
	.st4{fill:#FFFFFF;stroke:#0071BC;stroke-width:6.8667;stroke-miterlimit:10;}
</style>
<symbol  id="Check_-_Grey_2" viewBox="-16 -12 32 26">
	<polygon class="st0" points="16,8.1 10.1,14 -4.1,-0.2 -10.1,5.8 -16,-0.1 -4.1,-12 -4.1,-12 -4.1,-12 	"/>
</symbol>
<g>
	<path class="st1" d="M16.9,45.8H3.8V17.7h12.6c5.7,0,9.1,2.8,9.1,7.3c0,3.4-2,5.6-4.8,6.4c3.3,0.7,5.4,3.6,5.4,6.8
		C26.2,42.8,22.8,45.8,16.9,45.8z M15.1,23.2h-4.5V29h4.5c2.2,0,3.5-1,3.5-2.9C18.6,24.2,17.3,23.2,15.1,23.2z M15.6,34h-5v6.2h5
		c2.3,0,3.6-1,3.6-3S17.9,34,15.6,34z"/>
	<path class="st1" d="M47.3,23.2H37v5.7h9.2v5.3H37v6.2h10.4v5.5H30.1V17.7h17.2V23.2z"/>
	<path class="st1" d="M78,26.6h-7.6c-1-1.9-3-2.9-5.5-2.9c-4.4,0-7.3,3.1-7.3,8c0,5.2,3,8.2,7.9,8.2c3.4,0,5.8-1.8,6.8-5h-8.7v-5
		h14.9v6.4C77,41.1,72.3,46,64.9,46c-8.4,0-14.3-5.9-14.3-14.3s5.9-14.3,14.3-14.3C71.6,17.4,76.5,20.8,78,26.6z"/>
	<path class="st1" d="M82.3,17.7h6.8v28.1h-6.8V17.7z"/>
	<path class="st1" d="M119.2,17.7v28.1h-6.8l-11.4-17.3v17.3h-6.8V17.7h6.8l11.4,17.4V17.7H119.2z"/>
	<path class="st1" d="M139.5,17.7v22.8h9v5.3h-15.8V17.7H139.5z"/>
	<path class="st1" d="M168.9,23.2h-10.4v5.7h9.2v5.3h-9.2v6.2h10.4v5.5h-17.2V17.7h17.2V23.2z"/>
	<path class="st1" d="M190.8,40.8h-10.5l-1.7,5h-7.2l10.2-28.1h7.9l10.2,28.1h-7.2L190.8,40.8z M185.6,25.2l-3.4,10.3h6.9
		L185.6,25.2z"/>
	<path class="st1" d="M214.3,17.7c6.9,0,10.3,4,10.3,8.8c0,3.5-1.9,6.8-6.2,8.1l6.5,11.1h-7.7l-5.8-10.6h-1.6v10.6h-6.8V17.7H214.3z
		 M213.9,23.4h-4.2v7h4.2c2.6,0,3.8-1.3,3.8-3.5C217.7,24.7,216.5,23.4,213.9,23.4z"/>
	<path class="st1" d="M254,17.7v28.1h-6.8l-11.4-17.3v17.3h-6.8V17.7h6.8l11.4,17.4V17.7H254z"/>
	<path class="st1" d="M259,17.7h6.8v28.1H259V17.7z"/>
	<path class="st1" d="M295.9,17.7v28.1h-6.8l-11.4-17.3v17.3h-6.8V17.7h6.8l11.4,17.4V17.7H295.9z"/>
	<path class="st1" d="M327,26.6h-7.6c-1-1.9-3-2.9-5.5-2.9c-4.4,0-7.3,3.1-7.3,8c0,5.2,3,8.2,7.9,8.2c3.4,0,5.8-1.8,6.8-5h-8.7v-5
		h14.9v6.4c-1.4,4.8-6.1,9.7-13.5,9.7c-8.4,0-14.3-5.9-14.3-14.3s5.9-14.3,14.3-14.3C320.7,17.4,325.6,20.8,327,26.6z"/>
	<path class="st1" d="M365,31.7c0,8.3-5.8,14-14.7,14h-10.5V17.7h10.5C359.3,17.7,365,23.4,365,31.7z M349.9,39.8
		c5.2,0,8.2-3,8.2-8.1s-3-8.2-8.2-8.2h-3.2v16.3H349.9z"/>
	<path class="st1" d="M380.4,17.7c6.9,0,10.3,4,10.3,8.8c0,3.5-1.9,6.8-6.2,8.1l6.5,11.1h-7.7l-5.8-10.6h-1.6v10.6h-6.8V17.7H380.4z
		 M380,23.4h-4.2v7h4.2c2.6,0,3.8-1.3,3.8-3.5C383.7,24.7,382.5,23.4,380,23.4z"/>
	<path class="st1" d="M394.9,17.7h6.8v16.8c0,3.3,1.6,5.2,4.9,5.2c3.2,0,5-1.9,5-5.2V17.7h6.8v16.8c0,7.8-5.4,11.6-11.9,11.6
		c-6.5,0-11.6-3.8-11.6-11.6V17.7z"/>
	<path class="st1" d="M434.3,35.7H430v10.1h-6.8V17.7h11.1c6.9,0,10.3,3.9,10.3,9C444.6,31.4,441.4,35.7,434.3,35.7z M433.7,30.2
		c2.7,0,3.9-1.4,3.9-3.5s-1.2-3.5-3.9-3.5H430v7H433.7z"/>
	<path class="st1" d="M465.6,40.8h-10.5l-1.7,5h-7.2l10.2-28.1h7.9l10.2,28.1h-7.2L465.6,40.8z M460.4,25.2l-3.4,10.3h6.9
		L460.4,25.2z"/>
	<path class="st1" d="M484.5,17.7v22.8h9v5.3h-15.8V17.7H484.5z"/>
	<path d="M1.8,56.2h11.4v2.9H9.3V71H5.7V59.1H1.8V56.2z"/>
	<path d="M24.2,64.9h-5.6V71H15V56.2h3.6V62h5.6v-5.8h3.6V71h-3.6V64.9z"/>
	<path d="M39.4,59.1H34v3h4.8v2.8H34v3.2h5.4V71h-9V56.2h9V59.1z"/>
	<path class="st2" d="M46.2,56.2h9.6v2.9h-6v3.1h4.5V65h-4.5v6h-3.6V56.2z"/>
	<path class="st2" d="M66.8,68.4h-5.5L60.5,71h-3.8L62,56.2h4.2L71.5,71h-3.8L66.8,68.4z M64.1,60.2l-1.8,5.4h3.6L64.1,60.2z"/>
	<path class="st2" d="M78.5,71.1c-3.2,0-5.6-1.6-5.8-4.6h3.8c0.1,1.1,0.8,1.7,1.8,1.7c1,0,1.7-0.5,1.7-1.4c0-2.7-7.4-1.3-7.3-6.5
		c0-2.8,2.3-4.3,5.4-4.3c3.2,0,5.4,1.6,5.5,4.4h-3.9c-0.1-0.9-0.7-1.5-1.7-1.5c-0.9,0-1.5,0.4-1.5,1.3c0,2.6,7.3,1.4,7.3,6.3
		C83.8,69.1,81.9,71.1,78.5,71.1z"/>
	<path class="st2" d="M85.3,56.2h11.4v2.9h-3.9V71h-3.6V59.1h-3.9V56.2z"/>
	<path class="st2" d="M107.5,59.1h-5.4v3h4.8v2.8h-4.8v3.2h5.4V71h-9V56.2h9V59.1z"/>
	<path class="st2" d="M115.2,71.1c-3.2,0-5.6-1.6-5.8-4.6h3.8c0.1,1.1,0.8,1.7,1.8,1.7c1,0,1.7-0.5,1.7-1.4c0-2.7-7.4-1.3-7.3-6.5
		c0-2.8,2.3-4.3,5.4-4.3c3.2,0,5.4,1.6,5.5,4.4h-3.9c-0.1-0.9-0.7-1.5-1.7-1.5c-0.9,0-1.5,0.4-1.5,1.3c0,2.6,7.3,1.4,7.3,6.3
		C120.5,69.1,118.6,71.1,115.2,71.1z"/>
	<path class="st2" d="M121.9,56.2h11.4v2.9h-3.9V71h-3.6V59.1h-3.9V56.2z"/>
	<path d="M138.8,56.2h3.8l2.1,10.7l2.6-10.7h3.9l2.5,10.7l2.1-10.7h3.9L156,71h-4.3l-2.4-9.7l-2.4,9.7h-4.3L138.8,56.2z"/>
	<path d="M170.9,68.4h-5.5l-0.9,2.6h-3.8l5.3-14.7h4.2l5.3,14.7h-3.8L170.9,68.4z M168.1,60.2l-1.8,5.4h3.6L168.1,60.2z"/>
	<path d="M176,56.2h4.1l2.9,6.2l2.8-6.2h4l-5.1,9.9V71h-3.6v-4.9L176,56.2z"/>
	<path d="M195.7,56.2h9.6v2.9h-6v3.1h4.5V65h-4.5v6h-3.6V56.2z"/>
	<path d="M213.2,56.2c3.6,0,5.4,2.1,5.4,4.6c0,1.8-1,3.6-3.3,4.3l3.4,5.8h-4.1l-3.1-5.6h-0.9V71h-3.6V56.2H213.2z M213,59.2h-2.2
		v3.7h2.2c1.3,0,2-0.7,2-1.8C215,59.9,214.4,59.2,213,59.2z"/>
	<path d="M227.9,71.1c-4.2,0-7.6-3.1-7.6-7.6s3.4-7.5,7.6-7.5c4.2,0,7.5,3.1,7.5,7.5S232,71.1,227.9,71.1z M227.9,67.8
		c2.4,0,3.9-1.7,3.9-4.3c0-2.6-1.5-4.3-3.9-4.3c-2.4,0-3.9,1.7-3.9,4.3C224,66.1,225.5,67.8,227.9,67.8z"/>
	<path d="M237.4,56.2h4.2l4.1,10.2l4.1-10.2h4.2V71h-3.6v-8.8l-3.3,8.8h-2.9l-3.3-8.9V71h-3.6V56.2z"/>
	<path d="M274.3,56.2V71h-3.6l-6-9.1V71h-3.6V56.2h3.6l6,9.1v-9.1H274.3z"/>
	<path d="M283.9,71.1c-4.2,0-7.6-3.1-7.6-7.6s3.4-7.5,7.6-7.5c4.2,0,7.5,3.1,7.5,7.5S288.1,71.1,283.9,71.1z M283.9,67.8
		c2.4,0,3.9-1.7,3.9-4.3c0-2.6-1.5-4.3-3.9-4.3c-2.4,0-3.9,1.7-3.9,4.3C280,66.1,281.5,67.8,283.9,67.8z"/>
	<path d="M292.6,56.2H304v2.9h-3.9V71h-3.6V59.1h-3.9V56.2z"/>
	<path d="M315,64.9h-5.6V71h-3.6V56.2h3.6V62h5.6v-5.8h3.6V71H315V64.9z"/>
	<path d="M321.2,56.2h3.6V71h-3.6V56.2z"/>
	<path d="M340.6,56.2V71H337l-6-9.1V71h-3.6V56.2h3.6l6,9.1v-9.1H340.6z"/>
	<path d="M356.9,60.9h-4c-0.5-1-1.6-1.5-2.9-1.5c-2.3,0-3.8,1.6-3.8,4.2c0,2.7,1.6,4.3,4.1,4.3c1.8,0,3-0.9,3.6-2.6h-4.6v-2.6h7.8
		V66c-0.8,2.5-3.2,5.1-7.1,5.1c-4.4,0-7.5-3.1-7.5-7.5s3.1-7.5,7.5-7.5C353.6,56.1,356.1,57.9,356.9,60.9z"/>
	<path d="M362.8,56.2h11.4v2.9h-3.9V71h-3.6V59.1h-3.9V56.2z"/>
	<path d="M383,71.1c-4.2,0-7.6-3.1-7.6-7.6s3.4-7.5,7.6-7.5c4.2,0,7.5,3.1,7.5,7.5S387.2,71.1,383,71.1z M383,67.8
		c2.4,0,3.9-1.7,3.9-4.3c0-2.6-1.5-4.3-3.9-4.3c-2.4,0-3.9,1.7-3.9,4.3C379.1,66.1,380.6,67.8,383,67.8z"/>
	<path d="M396.2,56.2h3.8l2.1,10.7l2.6-10.7h3.9l2.5,10.7l2.1-10.7h3.9L413.4,71h-4.3l-2.4-9.7l-2.4,9.7H400L396.2,56.2z"/>
	<path d="M428.1,59.1h-5.4v3h4.8v2.8h-4.8v3.2h5.4V71h-9V56.2h9V59.1z"/>
	<path d="M437.3,71h-6.9V56.2h6.6c3,0,4.8,1.5,4.8,3.8c0,1.8-1.1,2.9-2.5,3.4c1.7,0.4,2.8,1.9,2.8,3.5C442.2,69.4,440.4,71,437.3,71
		z M436.4,59.1H434v3.1h2.4c1.2,0,1.8-0.5,1.8-1.5S437.6,59.1,436.4,59.1z M436.6,64.8H434v3.3h2.6c1.2,0,1.9-0.5,1.9-1.6
		S437.8,64.8,436.6,64.8z"/>
	<path d="M449.6,71.1c-3.2,0-5.6-1.6-5.8-4.6h3.8c0.1,1.1,0.8,1.7,1.8,1.7c1,0,1.7-0.5,1.7-1.4c0-2.7-7.4-1.3-7.3-6.5
		c0-2.8,2.3-4.3,5.4-4.3c3.2,0,5.4,1.6,5.5,4.4h-3.9c-0.1-0.9-0.7-1.5-1.7-1.5c-0.9,0-1.5,0.4-1.5,1.3c0,2.6,7.3,1.4,7.3,6.3
		C455,69.1,453.1,71.1,449.6,71.1z"/>
	<path d="M457.2,56.2h3.6V71h-3.6V56.2z"/>
	<path d="M462.6,56.2H474v2.9h-3.9V71h-3.6V59.1h-3.9V56.2z"/>
	<path d="M484.8,59.1h-5.4v3h4.8v2.8h-4.8v3.2h5.4V71h-9V56.2h9V59.1z"/>
</g>
<circle class="st4" cx="533.3" cy="46.3" r="25.8"/>
<use xlink:href="#Check_-_Grey_2"  width="32" height="26" id="XMLID_1_" x="-16" y="-12" transform="matrix(1 0 0 -1 533 47.001)" style="overflow:visible;"/>
</svg>
