<svg width="570" height="85" viewBox="0 0 570 85" fill="none" xmlns="http://www.w3.org/2000/svg">
<path d="M16.9 45.8H3.80005V17.7H16.4C22.1 17.7 25.5 20.5 25.5 25C25.5 28.4 23.5001 30.6 20.7001 31.4C24.0001 32.1 26.1 35 26.1 38.2C26.2 42.8 22.8 45.8 16.9 45.8ZM15.1 23.2H10.6V29H15.1C17.3 29 18.6 28 18.6 26.1C18.6 24.2 17.3 23.2 15.1 23.2ZM15.6 34H10.6V40.2H15.6C17.9 40.2 19.2 39.2 19.2 37.2C19.2 35.2 17.9 34 15.6 34Z" fill="#0057A2"/>
<path d="M47.3001 23.2H37.0001V28.9H46.2001V34.2H37.0001V40.4H47.4001V45.9H30.1001V17.7H47.3001V23.2Z" fill="#0057A2"/>
<path d="M78.0001 26.6H70.4001C69.4001 24.7 67.4001 23.7 64.9001 23.7C60.5001 23.7 57.6001 26.8 57.6001 31.7C57.6001 36.9 60.6001 39.9 65.5001 39.9C68.9001 39.9 71.3001 38.1 72.3001 34.9H63.6001V29.9H78.5001V36.3C77.0001 41.1 72.3001 46 64.9001 46C56.5001 46 50.6001 40.1 50.6001 31.7C50.6001 23.3 56.5001 17.4 64.9001 17.4C71.6001 17.4 76.5001 20.8 78.0001 26.6Z" fill="#0057A2"/>
<path d="M82.3 17.7H89.1V45.8H82.3V17.7Z" fill="#0057A2"/>
<path d="M119.2 17.7V45.8H112.4L101 28.5V45.8H94.2V17.7H101L112.4 35.1V17.7H119.2Z" fill="#0057A2"/>
<path d="M139.5 17.7V40.5H148.5V45.8H132.7V17.7H139.5Z" fill="#0057A2"/>
<path d="M168.9 23.2H158.5V28.9H167.7V34.2H158.5V40.4H168.9V45.9H151.7V17.7H168.9V23.2Z" fill="#0057A2"/>
<path d="M190.8 40.8H180.3L178.6 45.8H171.4L181.6 17.7H189.5L199.7 45.8H192.5L190.8 40.8ZM185.6 25.2L182.2 35.5H189.1L185.6 25.2Z" fill="#0057A2"/>
<path d="M214.3 17.7C221.2 17.7 224.6 21.7 224.6 26.5C224.6 30 222.7 33.3 218.4 34.6L224.9 45.7H217.2L211.4 35.1H209.8V45.7H203V17.7H214.3ZM213.9 23.4H209.7V30.4H213.9C216.5 30.4 217.7 29.1 217.7 26.9C217.7 24.7 216.5 23.4 213.9 23.4Z" fill="#0057A2"/>
<path d="M254 17.7V45.8H247.2L235.8 28.5V45.8H229V17.7H235.8L247.2 35.1V17.7H254Z" fill="#0057A2"/>
<path d="M259 17.7H265.8V45.8H259V17.7Z" fill="#0057A2"/>
<path d="M295.9 17.7V45.8H289.1L277.7 28.5V45.8H270.9V17.7H277.7L289.1 35.1V17.7H295.9Z" fill="#0057A2"/>
<path d="M327 26.6H319.4C318.4 24.7 316.4 23.7 313.9 23.7C309.5 23.7 306.6 26.8 306.6 31.7C306.6 36.9 309.6 39.9 314.5 39.9C317.9 39.9 320.3 38.1 321.3 34.9H312.6V29.9H327.5V36.3C326.1 41.1 321.4 46 314 46C305.6 46 299.7 40.1 299.7 31.7C299.7 23.3 305.6 17.4 314 17.4C320.7 17.4 325.6 20.8 327 26.6Z" fill="#0057A2"/>
<path d="M365 31.7C365 40 359.2 45.7 350.3 45.7H339.8V17.7H350.3C359.3 17.7 365 23.4 365 31.7ZM349.9 39.8C355.1 39.8 358.1 36.8 358.1 31.7C358.1 26.6 355.1 23.5 349.9 23.5H346.7V39.8H349.9Z" fill="#0057A2"/>
<path d="M380.4 17.7C387.3 17.7 390.7 21.7 390.7 26.5C390.7 30 388.8 33.3 384.5 34.6L391 45.7H383.3L377.5 35.1H375.9V45.7H369.1V17.7H380.4ZM380 23.4H375.8V30.4H380C382.6 30.4 383.8 29.1 383.8 26.9C383.7 24.7 382.5 23.4 380 23.4Z" fill="#0057A2"/>
<path d="M394.9 17.7H401.7V34.5C401.7 37.8 403.3 39.7 406.6 39.7C409.8 39.7 411.6 37.8 411.6 34.5V17.7H418.4V34.5C418.4 42.3 413 46.1 406.5 46.1C400 46.1 394.9 42.3 394.9 34.5V17.7Z" fill="#0057A2"/>
<path d="M434.3 35.7H430V45.8H423.2V17.7H434.3C441.2 17.7 444.6 21.6 444.6 26.7C444.6 31.4 441.4 35.7 434.3 35.7ZM433.7 30.2C436.4 30.2 437.6 28.8 437.6 26.7C437.6 24.6 436.4 23.2 433.7 23.2H430V30.2H433.7Z" fill="#0057A2"/>
<path d="M465.6 40.8H455.1L453.4 45.8H446.2L456.4 17.7H464.3L474.5 45.8H467.3L465.6 40.8ZM460.4 25.2L457 35.5H463.9L460.4 25.2Z" fill="#0057A2"/>
<path d="M484.5 17.7V40.5H493.5V45.8H477.7V17.7H484.5Z" fill="#0057A2"/>
<path d="M1.80005 56.2H13.2V59.1H9.30005V71H5.70005V59.1H1.80005V56.2Z" fill="#0057A2"/>
<path d="M24.2 64.9H18.6V71H15V56.2H18.6V62H24.2V56.2H27.8V71H24.2V64.9Z" fill="#0057A2"/>
<path d="M39.4001 59.1H34.0001V62.1H38.8001V64.9H34.0001V68.1H39.4001V71H30.4001V56.2H39.4001V59.1Z" fill="#0057A2"/>
<path d="M46.2 56.2H55.7999V59.1H49.7999V62.2H54.2999V65H49.7999V71H46.2V56.2Z" fill="#0057A2"/>
<path d="M66.8 68.4H61.2999L60.5 71H56.7L62 56.2H66.1999L71.5 71H67.6999L66.8 68.4ZM64.0999 60.2L62.2999 65.6H65.9L64.0999 60.2Z" fill="#0057A2"/>
<path d="M78.5 71.1C75.3 71.1 72.9 69.5 72.7 66.5H76.5C76.6 67.6 77.3 68.2 78.3 68.2C79.3 68.2 80 67.7 80 66.8C80 64.1 72.6 65.5 72.7 60.3C72.7 57.5 75 56 78.1 56C81.3 56 83.5 57.6 83.6 60.4H79.7C79.6 59.5 79 58.9 78 58.9C77.1 58.9 76.5 59.3 76.5 60.2C76.5 62.8 83.8 61.6 83.8 66.5C83.8 69.1 81.9 71.1 78.5 71.1Z" fill="#0057A2"/>
<path d="M85.3 56.2H96.7V59.1H92.8V71H89.2V59.1H85.3V56.2Z" fill="#0057A2"/>
<path d="M107.5 59.1H102.1V62.1H106.9V64.9H102.1V68.1H107.5V71H98.5V56.2H107.5V59.1Z" fill="#0057A2"/>
<path d="M115.2 71.1C112 71.1 109.6 69.5 109.4 66.5H113.2C113.3 67.6 114 68.2 115 68.2C116 68.2 116.7 67.7 116.7 66.8C116.7 64.1 109.3 65.5 109.4 60.3C109.4 57.5 111.7 56 114.8 56C118 56 120.2 57.6 120.3 60.4H116.4C116.3 59.5 115.7 58.9 114.7 58.9C113.8 58.9 113.2 59.3 113.2 60.2C113.2 62.8 120.5 61.6 120.5 66.5C120.5 69.1 118.6 71.1 115.2 71.1Z" fill="#0057A2"/>
<path d="M121.9 56.2H133.3V59.1H129.4V71H125.8V59.1H121.9V56.2Z" fill="#0057A2"/>
<path d="M138.8 56.2H142.6L144.7 66.9L147.3 56.2H151.2L153.7 66.9L155.8 56.2H159.7L156 71H151.7L149.3 61.3L146.9 71H142.6L138.8 56.2Z" fill="#0057A2"/>
<path d="M170.9 68.4H165.4L164.5 71H160.7L166 56.3H170.2L175.5 71H171.7L170.9 68.4ZM168.1 60.2L166.3 65.6H169.9L168.1 60.2Z" fill="#0057A2"/>
<path d="M176 56.2H180.1L183 62.4L185.8 56.2H189.8L184.7 66.1V71H181.1V66.1L176 56.2Z" fill="#0057A2"/>
<path d="M195.7 56.2H205.3V59.1H199.3V62.2H203.8V65H199.3V71H195.7V56.2Z" fill="#0057A2"/>
<path d="M213.2 56.2C216.8 56.2 218.6 58.3 218.6 60.8C218.6 62.6 217.6 64.4 215.3 65.1L218.7 70.9H214.6L211.5 65.3H210.6V71H207V56.2H213.2ZM213 59.2H210.8V62.9H213C214.3 62.9 215 62.2 215 61.1C215 59.9 214.4 59.2 213 59.2Z" fill="#0057A2"/>
<path d="M227.9 71.1C223.7 71.1 220.3 68 220.3 63.5C220.3 59 223.7 56 227.9 56C232.1 56 235.4 59.1 235.4 63.5C235.4 67.9 232 71.1 227.9 71.1ZM227.9 67.8C230.3 67.8 231.8 66.1 231.8 63.5C231.8 60.9 230.3 59.2 227.9 59.2C225.5 59.2 224 60.9 224 63.5C224 66.1 225.5 67.8 227.9 67.8Z" fill="#0057A2"/>
<path d="M237.4 56.2H241.6L245.7 66.4L249.8 56.2H254V71H250.4V62.2L247.1 71H244.2L240.9 62.1V71H237.3V56.2H237.4Z" fill="#0057A2"/>
<path d="M274.3 56.2V71H270.7L264.7 61.9V71H261.1V56.2H264.7L270.7 65.3V56.2H274.3Z" fill="#0057A2"/>
<path d="M283.9 71.1C279.7 71.1 276.3 68 276.3 63.5C276.3 59 279.7 56 283.9 56C288.1 56 291.4 59.1 291.4 63.5C291.4 67.9 288.1 71.1 283.9 71.1ZM283.9 67.8C286.3 67.8 287.8 66.1 287.8 63.5C287.8 60.9 286.3 59.2 283.9 59.2C281.5 59.2 280 60.9 280 63.5C280 66.1 281.5 67.8 283.9 67.8Z" fill="#0057A2"/>
<path d="M292.6 56.2H304V59.1H300.1V71H296.5V59.1H292.6V56.2Z" fill="#0057A2"/>
<path d="M315 64.9H309.4V71H305.8V56.2H309.4V62H315V56.2H318.6V71H315V64.9Z" fill="#0057A2"/>
<path d="M321.2 56.2H324.8V71H321.2V56.2Z" fill="#0057A2"/>
<path d="M340.6 56.2V71H337L331 61.9V71H327.4V56.2H331L337 65.3V56.2H340.6Z" fill="#0057A2"/>
<path d="M356.9 60.9H352.9C352.4 59.9 351.3 59.4 350 59.4C347.7 59.4 346.2 61 346.2 63.6C346.2 66.3 347.8 67.9 350.3 67.9C352.1 67.9 353.3 67 353.9 65.3H349.3V62.7H357.1V66C356.3 68.5 353.9 71.1 350 71.1C345.6 71.1 342.5 68 342.5 63.6C342.5 59.2 345.6 56.1 350 56.1C353.6 56.1 356.1 57.9 356.9 60.9Z" fill="#0057A2"/>
<path d="M362.8 56.2H374.2V59.1H370.3V71H366.7V59.1H362.8V56.2Z" fill="#0057A2"/>
<path d="M383 71.1C378.8 71.1 375.4 68 375.4 63.5C375.4 59 378.8 56 383 56C387.2 56 390.5 59.1 390.5 63.5C390.5 67.9 387.2 71.1 383 71.1ZM383 67.8C385.4 67.8 386.9 66.1 386.9 63.5C386.9 60.9 385.4 59.2 383 59.2C380.6 59.2 379.1 60.9 379.1 63.5C379.1 66.1 380.6 67.8 383 67.8Z" fill="#0057A2"/>
<path d="M396.2 56.2H400L402.1 66.9L404.7 56.2H408.6L411.1 66.9L413.2 56.2H417.1L413.4 71H409.1L406.7 61.3L404.3 71H400L396.2 56.2Z" fill="#0057A2"/>
<path d="M428.1 59.1H422.7V62.1H427.5V64.9H422.7V68.1H428.1V71H419.1V56.2H428.1V59.1Z" fill="#0057A2"/>
<path d="M437.3 71H430.4V56.2H437C440 56.2 441.8 57.7 441.8 60C441.8 61.8 440.7 62.9 439.3 63.4C441 63.8 442.1 65.3 442.1 66.9C442.2 69.4 440.4 71 437.3 71ZM436.4 59.1H434V62.2H436.4C437.6 62.2 438.2 61.7 438.2 60.7C438.2 59.7 437.6 59.1 436.4 59.1ZM436.6 64.8H434V68.1H436.6C437.8 68.1 438.5 67.6 438.5 66.5C438.5 65.4 437.8 64.8 436.6 64.8Z" fill="#0057A2"/>
<path d="M449.6 71.1C446.4 71.1 444 69.5 443.8 66.5H447.6C447.7 67.6 448.4 68.2 449.4 68.2C450.4 68.2 451.1 67.7 451.1 66.8C451.1 64.1 443.7 65.5 443.8 60.3C443.8 57.5 446.1 56 449.2 56C452.4 56 454.6 57.6 454.7 60.4H450.8C450.7 59.5 450.1 58.9 449.1 58.9C448.2 58.9 447.6 59.3 447.6 60.2C447.6 62.8 454.9 61.6 454.9 66.5C455 69.1 453.1 71.1 449.6 71.1Z" fill="#0057A2"/>
<path d="M457.2 56.2H460.8V71H457.2V56.2Z" fill="#0057A2"/>
<path d="M462.6 56.2H474V59.1H470.1V71H466.5V59.1H462.6V56.2Z" fill="#0057A2"/>
<path d="M484.8 59.1H479.4V62.1H484.2V64.9H479.4V68.1H484.8V71H475.8V56.2H484.8V59.1Z" fill="#0057A2"/>
<path d="M533.3 72.1C547.549 72.1 559.1 60.5489 559.1 46.3C559.1 32.0511 547.549 20.5 533.3 20.5C519.051 20.5 507.5 32.0511 507.5 46.3C507.5 60.5489 519.051 72.1 533.3 72.1Z" fill="white" stroke="#0057A2" stroke-width="6.8667" stroke-miterlimit="10"/>
<g clip-path="url(#clip0_158_1347)">
<path d="M549 38.901L543.1 33.001L528.9 47.201L522.9 41.201L517 47.101L528.9 59.001L549 38.901Z" fill="#FF1200"/>
</g>
<defs>
<clipPath id="clip0_158_1347">
<rect width="32" height="26" fill="white" transform="matrix(1 0 0 -1 517 59.001)"/>
</clipPath>
</defs>
</svg>
